<svg width="1512" height="293" viewBox="0 0 1512 293" fill="none" xmlns="http://www.w3.org/2000/svg">
<mask id="mask0_70_2" style="mask-type:alpha" maskUnits="userSpaceOnUse" x="0" y="0" width="1512" height="293">
<path d="M0 13.6872C0 13.6872 127.927 13.6872 332.61 54.4601C537.294 95.2329 530.155 -9.68296 691.298 0.731394C844.1 10.6066 908.645 72.8659 1055.4 38.4558C1163.64 13.0766 1230.83 -7.025 1342.5 6.80366C1408.61 14.9897 1455.68 26.4353 1512 54.4601V293H0V13.6872Z" fill="#FDC614"/>
</mask>
<g mask="url(#mask0_70_2)">
<rect y="-118" width="1512" height="411" fill="#FDC614"/>
<g opacity="0.25">
<path d="M0.613013 95.2037C2.80661 95.9037 5.17981 95.999 7.43251 95.4775C9.68521 94.9561 11.7162 93.8407 13.2686 92.2737C14.8211 90.7058 15.8254 88.7571 16.1544 86.6714C16.4833 84.5866 16.1223 82.4601 15.1169 80.5603C14.1115 78.6605 12.5068 77.0735 10.5059 75.9989C8.50501 74.9243 6.19761 74.412 3.87561 74.5253C1.55371 74.6387 -0.678586 75.3732 -2.53899 76.6355C-4.39939 77.8987 -5.80429 79.6326 -6.57609 81.6194C-7.60749 84.2837 -7.42979 87.21 -6.08209 89.7564C-4.73429 92.3028 -2.32649 94.2615 0.613013 95.2037ZM5.78051 81.9015C6.49201 82.1291 7.11321 82.5417 7.56571 83.0885C8.01821 83.6353 8.28161 84.2909 8.32261 84.9738C8.36361 85.6557 8.18051 86.3331 7.79621 86.9207C7.41191 87.5084 6.84381 87.9799 6.16371 88.2746C5.48371 88.5694 4.72221 88.6754 3.97561 88.5784C3.22901 88.4814 2.53081 88.1858 1.96931 87.7296C1.40781 87.2735 1.00821 86.6759 0.821012 86.0148C0.633913 85.3528 0.667613 84.6555 0.917913 84.0116C1.25451 83.1483 1.95551 82.441 2.86711 82.0456C3.77871 81.6503 4.82651 81.5986 5.78051 81.9015Z" fill="white" fill-opacity="0.38"/>
<path d="M165.583 99.3161C166.342 99.5592 167.165 99.5864 167.943 99.3959C168.72 99.2055 169.414 98.8047 169.934 98.2479L186.079 80.9747C186.739 80.2447 187.055 79.3089 186.96 78.3694C186.865 77.4299 186.367 76.5612 185.572 75.9509C184.777 75.3406 183.749 75.0377 182.71 75.1075C181.671 75.1764 180.704 75.6126 180.018 76.3227L163.872 93.5995C163.455 94.0438 163.165 94.5725 163.025 95.142C162.884 95.7106 162.899 96.3018 163.068 96.8641C163.236 97.4272 163.553 97.9441 163.991 98.3712C164.429 98.7983 164.976 99.123 165.583 99.3161Z" fill="white" fill-opacity="0.38"/>
<path d="M57.7314 84.5765C58.4695 85.1079 59.3925 85.3854 60.3352 85.3573C61.278 85.3292 62.179 84.9982 62.8769 84.4242C63.5749 83.8493 64.0242 83.0685 64.1445 82.2215C64.2649 81.3745 64.0484 80.5158 63.5339 79.7994C61.9058 77.5314 61.6835 74.2387 62.954 71.1945C64.0145 68.6536 65.9419 66.7611 67.9789 66.2496C69.3079 65.9159 71.5479 67.6552 73.7129 69.3328C77.5869 72.3362 82.8879 76.445 90.1399 74.3367C97.2449 72.27 98.1809 65.156 98.8639 59.9608C99.1219 57.9957 99.6049 54.333 100.423 53.7599C100.588 53.7354 100.755 53.7309 100.921 53.7463C104.873 54.0056 109.966 62.3031 111.655 75.7386C111.774 76.6872 112.305 77.5541 113.129 78.1489C113.954 78.7429 115.006 79.0168 116.053 78.9089C117.101 78.801 118.058 78.3212 118.714 77.574C119.37 76.8268 119.672 75.8746 119.553 74.9261C118.976 70.3512 115.397 47.4883 101.495 46.5697C97.5399 46.3058 94.4549 48.0142 92.8029 51.374C91.6959 53.6248 91.3309 56.4133 90.9779 59.1102C90.3959 63.6398 89.7989 66.8798 87.7059 67.4865C84.9699 68.2773 82.8239 66.9225 78.8789 63.8683C75.4859 61.2349 71.2619 57.9603 65.8629 59.3142C61.3469 60.4396 57.4942 63.9308 55.523 68.6463C53.3411 73.8687 53.8481 79.5047 56.8603 83.7178C57.0955 84.0461 57.39 84.3362 57.7314 84.5765Z" fill="white" fill-opacity="0.38"/>
<path d="M127.712 27.8674C129.906 28.5665 132.279 28.6618 134.531 28.1394C136.783 27.6171 138.814 26.5017 140.366 24.9347C141.918 23.3668 142.921 21.4171 143.25 19.3324C143.578 17.2476 143.216 15.1211 142.211 13.2222C141.205 11.3224 139.6 9.73543 137.599 8.66175C135.598 7.58807 133.291 7.0748 130.97 7.18816C128.648 7.30242 126.416 8.03695 124.555 9.29925C122.695 10.5615 121.291 12.2963 120.519 14.2822C119.487 16.9474 119.665 19.8737 121.014 22.421C122.362 24.9683 124.771 26.927 127.712 27.8674ZM132.879 14.5661C133.59 14.7937 134.211 15.2072 134.663 15.7549C135.115 16.3017 135.377 16.9574 135.418 17.6393C135.458 18.3212 135.274 18.9986 134.89 19.5863C134.505 20.173 133.937 20.6436 133.257 20.9383C132.577 21.2331 131.815 21.3382 131.069 21.2412C130.323 21.1442 129.625 20.8486 129.063 20.3915C128.502 19.9354 128.103 19.3387 127.916 18.6776C127.729 18.0156 127.763 17.3183 128.013 16.6745C128.35 15.8102 129.051 15.1029 129.964 14.7075C130.876 14.3131 131.925 14.2614 132.879 14.5661Z" fill="white" fill-opacity="0.38"/>
<path d="M56.8862 -0.899826C53.7647 -1.89643 52.1244 -4.99596 53.2226 -7.82253C54.3208 -10.6491 57.7417 -12.1336 60.8632 -11.137C63.9847 -10.1404 65.6251 -7.04175 64.5268 -4.21427C63.4286 -1.3877 60.0078 0.0958678 56.8862 -0.899826Z" fill="white" fill-opacity="0.38"/>
<path d="M90.8469 291.689C91.6059 291.932 92.4289 291.959 93.2059 291.769C93.9829 291.578 94.6779 291.178 95.1979 290.621L111.344 273.344C111.697 272.986 111.967 272.568 112.138 272.112C112.309 271.658 112.378 271.178 112.341 270.699C112.304 270.219 112.161 269.752 111.921 269.323C111.681 268.895 111.349 268.514 110.944 268.204C110.539 267.893 110.07 267.659 109.564 267.516C109.058 267.372 108.525 267.322 107.998 267.368C107.47 267.413 106.957 267.555 106.491 267.782C106.024 268.011 105.613 268.321 105.281 268.696L89.1369 285.969C88.4559 286.696 88.1229 287.639 88.2099 288.589C88.2969 289.541 88.7969 290.421 89.6009 291.039C89.9679 291.324 90.3909 291.544 90.8469 291.689Z" fill="white" fill-opacity="0.38"/>
<path d="M-9.37045 299.126C-8.43595 299.08 -7.54895 298.736 -6.86595 298.156C-6.18295 297.574 -5.74775 296.795 -5.63745 295.952C-5.52705 295.11 -5.74845 294.259 -6.26255 293.551C-6.77675 292.843 -7.55065 292.322 -8.44765 292.081C-11.3159 291.345 -13.8714 288.99 -15.1184 285.939C-16.1576 283.394 -16.0776 280.816 -14.9122 279.216C-14.1519 278.174 -11.2031 278.15 -8.35545 278.126C-3.25685 278.085 3.71635 278.026 7.65635 272.116C11.5153 266.322 7.06645 260.4 3.82025 256.08C2.58915 254.441 0.299652 251.392 0.501852 250.472C0.609852 250.358 0.732553 250.254 0.867453 250.166C4.03675 248.01 13.888 251.232 24.8941 260.356C25.6711 261 26.6988 261.338 27.7514 261.294C28.8039 261.252 29.795 260.831 30.5065 260.126C31.2181 259.421 31.5919 258.488 31.5456 257.534C31.4993 256.58 31.0368 255.683 30.2598 255.039C26.5106 251.933 7.24805 236.824 -3.89905 244.413C-7.06995 246.574 -8.16065 249.696 -6.97225 253.213C-6.17415 255.573 -4.43135 257.889 -2.74335 260.133C0.099251 263.895 1.99585 266.693 0.857153 268.398C-0.630547 270.626 -3.23045 270.885 -8.41875 270.928C-12.8849 270.965 -18.4397 271.014 -21.5314 275.248C-24.1212 278.787 -24.497 283.714 -22.5669 288.444C-20.4291 293.681 -15.9638 297.629 -10.6408 299.011C-10.2274 299.112 -9.79815 299.151 -9.37045 299.126Z" fill="white" fill-opacity="0.38"/>
<path d="M66.193 127.5C66.666 127.302 67.177 127.189 67.698 127.169C68.219 127.15 68.74 127.224 69.23 127.386C69.719 127.549 70.169 127.798 70.553 128.118C70.937 128.438 71.247 128.823 71.466 129.252L74.224 134.637L82.048 130.133C82.488 129.879 82.979 129.707 83.493 129.625C84.006 129.543 84.533 129.555 85.042 129.658C85.551 129.761 86.033 129.953 86.46 130.224C86.887 130.496 87.251 130.841 87.531 131.24C87.811 131.639 88.002 132.084 88.092 132.549C88.182 133.015 88.17 133.492 88.057 133.952C87.944 134.414 87.731 134.85 87.432 135.237C87.132 135.624 86.751 135.953 86.311 136.207L77.598 141.221L81.271 148.416C81.505 148.846 81.642 149.315 81.674 149.794C81.706 150.272 81.632 150.753 81.455 151.206C81.279 151.657 81.005 152.073 80.649 152.428C80.293 152.783 79.862 153.07 79.381 153.272C78.901 153.473 78.38 153.586 77.851 153.603C77.321 153.619 76.794 153.541 76.299 153.37C75.803 153.199 75.351 152.94 74.967 152.609C74.584 152.277 74.278 151.88 74.067 151.44L70.832 145.124L67.509 147.039C67.068 147.292 66.577 147.464 66.064 147.546C65.55 147.627 65.0233 147.616 64.5141 147.513C64.0049 147.41 63.523 147.217 63.0959 146.946C62.6689 146.675 62.3049 146.33 62.0249 145.931C61.745 145.532 61.5546 145.087 61.4644 144.622C61.3742 144.156 61.386 143.68 61.4993 143.218C61.6126 142.757 61.8251 142.32 62.1246 141.934C62.4242 141.547 62.8049 141.218 63.2451 140.965L67.459 138.54L64.2536 132.297C64.0303 131.867 63.9034 131.401 63.8801 130.927C63.8568 130.452 63.9376 129.979 64.1179 129.532C64.2983 129.086 64.5744 128.676 64.9305 128.328C65.2866 127.979 65.716 127.698 66.193 127.5Z" fill="white" fill-opacity="0.38"/>
<path d="M52.9747 220.241C55.1691 220.941 57.5432 221.036 59.7967 220.515C62.0502 219.994 64.0817 218.878 65.635 217.31C67.188 215.742 68.192 213.793 68.521 211.707C68.851 209.621 68.489 207.494 67.484 205.593C66.478 203.693 64.8726 202.105 62.871 201.03C60.8694 199.955 58.5612 199.442 56.2384 199.556C53.9156 199.669 51.6825 200.404 49.8214 201.668C47.9604 202.931 46.5551 204.666 45.783 206.652C44.7513 209.318 44.929 212.245 46.2772 214.792C47.6255 217.339 50.0342 219.299 52.9747 220.241ZM58.1436 206.936C58.856 207.164 59.478 207.577 59.931 208.125C60.384 208.672 60.6476 209.329 60.6885 210.012C60.7293 210.695 60.5456 211.373 60.1606 211.962C59.7755 212.55 59.2064 213.022 58.5252 213.317C57.8441 213.611 57.0816 213.717 56.3341 213.62C55.5866 213.522 54.8876 213.226 54.3258 212.768C53.764 212.311 53.3644 211.713 53.1777 211.051C52.991 210.388 53.0256 209.689 53.277 209.045C53.6138 208.18 54.3156 207.473 55.2281 207.078C56.1406 206.682 57.1892 206.632 58.1436 206.936Z" fill="white" fill-opacity="0.38"/>
<path d="M-7.84831 191.47C-10.9698 190.474 -12.61 187.374 -11.5118 184.548C-10.4136 181.721 -6.99281 180.237 -3.8713 181.233C-0.749705 182.23 0.890496 185.329 -0.207704 188.156C-1.3059 190.983 -4.72671 192.467 -7.84831 191.47Z" fill="white" fill-opacity="0.38"/>
<path d="M366.833 163.55C367.592 163.792 368.415 163.819 369.192 163.629C369.969 163.438 370.664 163.038 371.184 162.482L387.329 145.209C387.666 144.848 387.921 144.431 388.08 143.981C388.239 143.53 388.299 143.057 388.256 142.585C388.212 142.115 388.067 141.656 387.828 141.235C387.589 140.815 387.261 140.441 386.863 140.136C386.465 139.83 386.004 139.599 385.507 139.454C385.01 139.31 384.487 139.255 383.967 139.294C383.447 139.333 382.94 139.465 382.477 139.681C382.013 139.897 381.6 140.194 381.263 140.555L365.118 157.832C364.702 158.276 364.412 158.806 364.273 159.375C364.133 159.944 364.149 160.535 364.317 161.098C364.486 161.66 364.803 162.177 365.241 162.604C365.679 163.031 366.226 163.356 366.833 163.55Z" fill="white" fill-opacity="0.38"/>
<path d="M251.263 159.77C252.189 159.932 253.149 159.79 253.97 159.369C254.792 158.948 255.421 158.277 255.746 157.474C256.072 156.672 256.071 155.791 255.745 154.99C255.419 154.188 254.789 153.518 253.967 153.1C251.366 151.773 249.488 148.948 249.064 145.716C248.706 143.018 249.448 140.531 250.992 139.222C252 138.369 254.873 138.969 257.649 139.547C262.612 140.583 269.408 142 274.759 137.086C280.006 132.27 277.203 125.571 275.171 120.676C274.397 118.826 272.954 115.376 273.387 114.525C273.52 114.432 273.666 114.358 273.822 114.304C277.453 112.875 286.208 118.09 294.565 129.289C295.157 130.075 296.069 130.615 297.1 130.793C298.132 130.97 299.199 130.77 300.069 130.237C300.939 129.704 301.541 128.88 301.743 127.946C301.945 127.012 301.73 126.044 301.146 125.254C298.299 121.441 283.477 102.673 270.666 107.702C267.025 109.129 265.159 111.939 265.415 115.61C265.583 118.07 266.683 120.695 267.744 123.235C269.541 127.493 270.67 130.615 269.125 132.032C267.104 133.881 264.505 133.582 259.454 132.53C255.101 131.622 249.686 130.492 245.588 133.961C242.159 136.854 240.531 141.565 241.192 146.573C241.925 152.118 245.248 156.901 250.073 159.37C250.444 159.56 250.846 159.695 251.263 159.77Z" fill="white" fill-opacity="0.38"/>
<path d="M292.176 -0.636871C292.648 -0.835466 293.16 -0.947931 293.681 -0.967881C294.202 -0.986924 294.723 -0.913459 295.212 -0.751137C295.702 -0.587909 296.152 -0.339433 296.536 -0.0193234C296.919 0.300786 297.23 0.686165 297.449 1.11509L300.204 6.49439L308.026 1.99383C308.467 1.74083 308.958 1.5676 309.471 1.48689C309.985 1.40528 310.512 1.41617 311.021 1.51864C311.53 1.62202 312.012 1.81427 312.439 2.08632C312.866 2.35746 313.23 2.70295 313.51 3.10196C313.79 3.50005 313.98 3.9453 314.071 4.4105C314.161 4.8757 314.149 5.35269 314.036 5.81427C313.922 6.27493 313.71 6.71204 313.41 7.09835C313.111 7.48465 312.73 7.81474 312.29 8.06774L303.576 13.0834L307.253 20.2791C307.697 21.1451 307.743 22.1353 307.38 23.0312C307.018 23.9272 306.277 24.6563 305.321 25.058C304.365 25.4588 303.272 25.4996 302.283 25.1714C301.293 24.8422 300.488 24.1711 300.044 23.3051L296.81 16.99L293.486 18.9034C293.046 19.1573 292.555 19.3296 292.041 19.4103C291.527 19.4919 291.001 19.481 290.492 19.3786C289.982 19.2752 289.501 19.0829 289.074 18.8109C288.646 18.5397 288.283 18.1943 288.003 17.7962C287.723 17.3972 287.532 16.9519 287.442 16.4867C287.352 16.0215 287.364 15.5445 287.477 15.0829C287.59 14.6223 287.803 14.1861 288.102 13.7989C288.402 13.4125 288.782 13.0834 289.223 12.8295L293.438 10.401L290.237 4.16021C290.013 3.73038 289.886 3.26428 289.863 2.79001C289.84 2.31484 289.921 1.84057 290.101 1.39532C290.281 0.949163 290.557 0.539276 290.913 0.191055C291.27 -0.158073 291.699 -0.439183 292.176 -0.636871Z" fill="white" fill-opacity="0.38"/>
<path d="M328.957 92.0986C331.151 92.7987 333.524 92.8948 335.777 92.3734C338.029 91.852 340.06 90.7366 341.613 89.1696C343.165 87.6017 344.169 85.6529 344.498 83.5672C344.827 81.4824 344.466 79.3559 343.461 77.4561C342.455 75.5563 340.851 73.9694 338.85 72.8948C336.849 71.8211 334.542 71.3078 332.22 71.4212C329.898 71.5345 327.665 72.2691 325.805 73.5314C323.945 74.7946 322.54 76.5285 321.768 78.5153C320.737 81.1796 320.914 84.1059 322.262 86.6522C323.61 89.1986 326.018 91.1573 328.957 92.0986ZM334.125 78.7982C334.836 79.0249 335.457 79.4375 335.91 79.9844C336.362 80.5312 336.626 81.1877 336.667 81.8696C336.708 82.5516 336.524 83.229 336.14 83.8166C335.756 84.4042 335.188 84.8758 334.508 85.1705C333.828 85.4652 333.066 85.5713 332.32 85.4743C331.573 85.3772 330.875 85.0816 330.313 84.6255C329.752 84.1693 329.352 83.5718 329.165 82.9107C328.978 82.2487 329.012 81.5514 329.262 80.9066C329.6 80.0442 330.301 79.3378 331.212 78.9424C332.123 78.547 333.17 78.4953 334.125 78.7982Z" fill="white" fill-opacity="0.38"/>
<path d="M238.131 63.3324C235.01 62.3367 233.369 59.2372 234.467 56.4106C235.566 53.5831 238.986 52.0996 242.108 53.0962C245.23 54.0918 246.87 57.1914 245.772 60.0179C244.674 62.8454 241.253 64.329 238.131 63.3324Z" fill="white" fill-opacity="0.38"/>
<path d="M388.498 31.0966C388.203 32.3852 388.385 34.2342 390.551 36.2074C391.817 37.2666 393.183 38.2224 394.634 39.064C395.957 39.891 398.616 41.5432 399.227 42.4836C398.316 43.3795 394.722 44.5448 392.938 45.1107C388.571 46.5162 384.445 47.8447 383.93 51.5029C383.064 57.6312 389.751 60.9729 392.27 62.2315C392.726 62.46 393.228 62.6042 393.746 62.6568C394.264 62.7094 394.788 62.6686 395.288 62.5371C395.788 62.4056 396.255 62.1862 396.662 61.8915C397.069 61.5958 397.408 61.2304 397.659 60.816C397.91 60.4015 398.069 59.9463 398.127 59.4766C398.184 59.0068 398.139 58.5308 397.994 58.0765C397.849 57.6221 397.607 57.1977 397.281 56.8287C396.956 56.4587 396.553 56.1513 396.097 55.9227C393.547 54.6477 392.465 53.7473 392.042 53.1433C393.002 52.7352 394.499 52.2528 395.594 51.9019C400.376 50.363 406.322 48.4496 407.158 43.5718C407.994 38.693 402.867 35.4593 399.12 33.1251L398.232 32.5683C399.036 32.3054 399.883 32.0487 400.59 31.8347C406.102 30.1644 412.967 28.0814 414.204 22.6812C415.44 17.282 410.057 14.5752 406.838 12.9855C405.519 12.3344 403.089 11.1337 403.069 10.5234C403.76 10.06 406.262 9.73814 407.633 9.55315C411.671 9.01631 417.763 8.21377 418.742 2.77554C419.745 -2.84496 413.772 -5.43304 410.204 -6.99278C409.068 -7.45345 407.971 -7.98849 406.92 -8.59334C407.419 -9.78038 408.678 -11.0145 410.289 -11.847C412.378 -12.9307 414.671 -13.2127 416.571 -12.6224C417.544 -12.3811 418.582 -12.4854 419.473 -12.9143C420.364 -13.3433 421.042 -14.0642 421.368 -14.9311C421.694 -15.7971 421.644 -16.7439 421.229 -17.5791C420.813 -18.4143 420.063 -19.0735 419.131 -19.4245C415.079 -20.6831 410.424 -20.1953 406.355 -18.0905C402.509 -16.1073 399.753 -12.899 398.986 -9.53191C398.668 -8.13721 398.609 -5.44213 401.795 -3.08711C403.241 -2.01887 405.042 -1.23716 406.802 -0.480872C407.992 0.0360184 410.103 0.95372 410.798 1.59394C409.947 1.97753 407.824 2.26227 406.493 2.44182C402.564 2.96687 395.982 3.85012 395.212 9.6266C394.48 15.0848 399.648 17.6375 403.071 19.326C404.163 19.8665 405.954 20.7524 406.432 21.2929C405.967 22.6323 400.461 24.2909 398.093 25.0136C393.886 26.2741 390.567 27.2933 389.087 29.7427C388.819 30.1653 388.62 30.6214 388.498 31.0966Z" fill="white" fill-opacity="0.38"/>
<path d="M217.438 191.734C217.911 191.535 218.423 191.422 218.944 191.403C219.465 191.383 219.986 191.457 220.475 191.62C220.965 191.782 221.415 192.031 221.799 192.351C222.182 192.671 222.493 193.056 222.712 193.485L225.466 198.869L233.289 194.364C233.73 194.111 234.221 193.939 234.734 193.857C235.248 193.776 235.775 193.786 236.284 193.89C236.793 193.992 237.275 194.185 237.702 194.457C238.129 194.729 238.493 195.073 238.773 195.472C239.053 195.871 239.243 196.316 239.334 196.782C239.424 197.247 239.412 197.724 239.299 198.185C239.185 198.646 238.973 199.082 238.673 199.469C238.374 199.856 237.993 200.185 237.553 200.438L228.839 205.454L232.516 212.649C232.96 213.515 233.005 214.506 232.642 215.402C232.28 216.297 231.539 217.026 230.583 217.426C229.627 217.827 228.535 217.867 227.545 217.539C226.556 217.21 225.752 216.539 225.308 215.673L222.074 209.357L218.75 211.271C218.31 211.524 217.819 211.696 217.305 211.778C216.792 211.859 216.265 211.849 215.756 211.745C215.247 211.643 214.765 211.45 214.338 211.178C213.911 210.907 213.547 210.562 213.267 210.163C212.987 209.764 212.796 209.319 212.706 208.854C212.616 208.388 212.628 207.911 212.741 207.451C212.854 206.989 213.067 206.553 213.366 206.166C213.666 205.779 214.047 205.45 214.487 205.197L218.701 202.772L215.499 196.531C215.276 196.101 215.149 195.636 215.126 195.16C215.103 194.686 215.183 194.212 215.364 193.766C215.544 193.319 215.82 192.91 216.176 192.561C216.532 192.213 216.961 191.932 217.438 191.734Z" fill="white" fill-opacity="0.38"/>
<path d="M254.22 284.473C256.414 285.174 258.788 285.27 261.042 284.748C263.296 284.228 265.328 283.112 266.882 281.545C268.435 279.977 269.44 278.028 269.77 275.942C270.1 273.855 269.739 271.728 268.733 269.827C267.728 267.927 266.123 266.338 264.122 265.263C262.12 264.189 259.812 263.675 257.489 263.788C255.166 263.901 252.933 264.637 251.071 265.9C249.21 267.163 247.805 268.898 247.032 270.885C246.001 273.549 246.178 276.476 247.526 279.023C248.873 281.571 251.281 283.53 254.22 284.473ZM259.389 271.168C260.102 271.394 260.724 271.807 261.178 272.355C261.632 272.902 261.896 273.559 261.937 274.242C261.979 274.925 261.796 275.604 261.411 276.192C261.026 276.781 260.457 277.253 259.776 277.548C259.095 277.844 258.332 277.95 257.585 277.853C256.837 277.755 256.138 277.459 255.576 277.001C255.014 276.544 254.614 275.947 254.427 275.283C254.24 274.62 254.275 273.922 254.526 273.277C254.864 272.415 255.565 271.708 256.476 271.313C257.387 270.917 258.435 270.865 259.389 271.168Z" fill="white" fill-opacity="0.38"/>
<path d="M163.396 255.702C160.274 254.705 158.634 251.606 159.732 248.779C160.831 245.952 164.251 244.468 167.373 245.465C170.494 246.46 172.135 249.56 171.036 252.386C169.938 255.214 166.517 256.697 163.396 255.702Z" fill="white" fill-opacity="0.38"/>
<path d="M331.369 229.991C332.504 230.812 334.405 231.499 337.325 230.636C338.938 230.089 340.495 229.415 341.978 228.62C343.389 227.923 346.212 226.519 347.416 226.446C347.884 227.591 347.412 231.022 347.164 232.721C346.577 236.89 346.023 240.827 349.39 242.897C355.031 246.36 361.336 242.455 363.712 240.985C364.155 240.724 364.537 240.384 364.833 239.988C365.13 239.591 365.336 239.145 365.439 238.675C365.543 238.204 365.542 237.72 365.436 237.251C365.33 236.782 365.121 236.336 364.822 235.94C364.524 235.544 364.141 235.207 363.696 234.946C363.251 234.686 362.753 234.51 362.232 234.427C361.711 234.343 361.177 234.355 360.661 234.461C360.145 234.567 359.658 234.766 359.228 235.045C356.824 236.53 355.45 236.999 354.664 237.07C354.695 236.112 354.897 234.679 355.046 233.634C355.688 229.07 356.488 223.395 352.064 220.518C347.64 217.64 342.144 220.331 338.157 222.31C337.87 222.456 337.545 222.617 337.208 222.779C337.312 222.009 337.442 221.207 337.549 220.542C338.393 215.323 339.44 208.829 334.682 205.396C329.925 201.962 324.835 205.091 321.818 206.978C320.582 207.752 318.303 209.181 317.694 208.922C317.551 208.15 318.362 205.98 318.799 204.786C320.092 201.277 322.051 195.984 317.139 192.743C312.061 189.391 306.819 193.062 303.675 195.242C302.71 195.954 301.688 196.601 300.618 197.177C299.674 196.241 299.028 194.662 298.936 192.982C298.812 190.803 299.567 188.824 301.006 187.553C301.415 187.232 301.747 186.838 301.983 186.397C302.218 185.955 302.351 185.474 302.374 184.985C302.397 184.495 302.308 184.005 302.115 183.547C301.921 183.089 301.626 182.671 301.248 182.321C300.87 181.97 300.417 181.692 299.916 181.505C299.415 181.318 298.878 181.226 298.336 181.234C297.795 181.242 297.261 181.351 296.768 181.553C296.274 181.755 295.832 182.047 295.467 182.408C292.401 185.12 290.78 189.111 291.017 193.349C291.232 197.361 293.147 201.036 296.116 203.175C297.344 204.064 299.969 205.328 303.725 203.809C305.429 203.12 307.011 202.015 308.542 200.95C309.588 200.22 311.444 198.922 312.387 198.652C312.382 199.51 311.703 201.361 311.281 202.515C310.024 205.932 307.924 211.657 313.261 214.89C318.303 217.944 323.148 214.91 326.353 212.902C327.378 212.262 329.058 211.212 329.805 211.069C330.914 212.049 330.062 217.253 329.704 219.499C329.048 223.469 328.553 226.616 330.295 228.922C330.592 229.325 330.954 229.686 331.369 229.991Z" fill="white" fill-opacity="0.38"/>
<path d="M642.808 35.4121C643.568 35.6542 644.391 35.6824 645.168 35.4919C645.945 35.3006 646.64 34.9007 647.16 34.3439L663.31 17.0689C663.647 16.7079 663.902 16.2908 664.06 15.841C664.219 15.3903 664.279 14.917 664.235 14.4454C664.192 13.9748 664.046 13.5159 663.807 13.0961C663.568 12.6762 663.24 12.3026 662.842 11.997C662.443 11.6923 661.982 11.4601 661.486 11.3169C660.989 11.1727 660.465 11.1183 659.945 11.1573C659.425 11.1963 658.919 11.3277 658.456 11.5445C657.992 11.7603 657.58 12.0578 657.243 12.4187L641.097 29.6946C640.417 30.4228 640.083 31.3659 640.17 32.3162C640.257 33.2675 640.758 34.148 641.561 34.7655C641.931 35.0467 642.353 35.2661 642.808 35.4121Z" fill="white" fill-opacity="0.38"/>
<path d="M512.617 -9.74588C513.268 -10.3625 514.139 -10.7497 515.076 -10.8395C516.012 -10.9284 516.953 -10.7144 517.731 -10.2337C518.509 -9.75312 519.073 -9.03854 519.323 -8.21605C519.573 -7.39447 519.493 -6.51849 519.097 -5.74406C517.831 -3.29654 518.116 -0.00746715 519.842 2.84994C521.286 5.23126 523.482 6.86716 525.581 7.11291C526.944 7.27614 528.896 5.27207 530.766 3.34234C534.139 -0.119007 538.757 -4.85718 546.262 -3.68375C553.616 -2.5339 555.637 4.39244 557.126 9.44617C557.684 11.3632 558.719 14.927 559.617 15.3913C559.784 15.3977 559.952 15.3823 560.114 15.3451C563.986 14.587 567.757 5.72728 567.373 -7.79167C567.351 -8.74293 567.745 -9.66335 568.47 -10.3516C569.195 -11.0408 570.192 -11.4416 571.241 -11.4661C572.291 -11.4915 573.309 -11.1388 574.072 -10.4859C574.836 -9.83294 575.282 -8.93245 575.314 -7.98209C575.445 -3.37814 575.409 19.7169 561.785 22.3757C557.909 23.1347 554.588 21.8343 552.438 18.7185C550.999 16.6246 550.207 13.9105 549.443 11.2834C548.173 6.8717 547.085 3.74225 544.922 3.40038C542.092 2.96329 540.17 4.57652 536.736 8.09681C533.776 11.1338 530.099 14.908 524.541 14.2496C519.903 13.7228 515.546 10.7329 512.877 6.3294C509.914 1.42983 509.552 -4.21514 511.89 -8.76378C512.07 -9.1256 512.316 -9.45751 512.617 -9.74588Z" fill="white" fill-opacity="0.38"/>
<path d="M568.074 227.781C568.834 228.024 569.656 228.052 570.434 227.86C571.211 227.67 571.905 227.27 572.425 226.713L588.574 209.441C588.911 209.08 589.166 208.663 589.325 208.213C589.484 207.763 589.544 207.289 589.501 206.818C589.458 206.347 589.312 205.888 589.073 205.468C588.835 205.047 588.507 204.674 588.108 204.368C587.71 204.063 587.249 203.831 586.752 203.687C586.255 203.543 585.732 203.489 585.212 203.528C584.692 203.566 584.186 203.697 583.722 203.914C583.258 204.13 582.846 204.426 582.508 204.787L566.351 222.06C565.67 222.788 565.337 223.731 565.424 224.682C565.511 225.632 566.011 226.514 566.815 227.13C567.188 227.414 567.614 227.635 568.074 227.781Z" fill="white" fill-opacity="0.38"/>
<path d="M436.484 186.01C436.523 186.865 436.897 187.678 437.537 188.306C438.177 188.935 439.043 189.336 439.979 189.438C440.914 189.541 441.859 189.337 442.645 188.866C443.43 188.393 444.004 187.683 444.264 186.862C445.089 184.261 447.69 181.953 451.059 180.832C453.874 179.899 456.71 179.979 458.473 181.045C459.618 181.734 459.635 184.408 459.644 186.977C459.675 191.595 459.718 197.919 466.222 201.511C472.596 205.03 479.142 201.018 483.928 198.1C485.736 196.991 489.103 194.921 490.117 195.108C490.245 195.204 490.358 195.315 490.454 195.44C492.825 198.319 489.24 207.242 479.145 217.196C478.439 217.9 478.069 218.828 478.115 219.78C478.162 220.73 478.622 221.627 479.394 222.272C480.167 222.916 481.19 223.258 482.238 223.222C483.287 223.185 484.276 222.773 484.99 222.076C488.427 218.686 505.146 201.269 496.815 191.139C494.446 188.255 491.001 187.255 487.118 188.321C484.519 189.038 481.954 190.61 479.474 192.133C475.317 194.7 472.224 196.41 470.351 195.375C467.901 194.018 467.623 191.655 467.59 186.956C467.562 182.903 467.531 177.866 462.866 175.048C458.972 172.688 453.54 172.332 448.318 174.067C442.536 175.988 438.168 180.025 436.627 184.848C436.509 185.225 436.461 185.618 436.484 186.01Z" fill="white" fill-opacity="0.38"/>
<path d="M493.42 63.5945C494.376 63.1936 495.469 63.1537 496.458 63.482C497.448 63.8103 498.253 64.4813 498.697 65.3473L501.457 70.7284L509.279 66.2279C510.168 65.7155 511.245 65.545 512.273 65.7527C513.302 65.9604 514.197 66.5298 514.762 67.3351C515.328 68.1413 515.517 69.1161 515.288 70.0474C515.059 70.9787 514.431 71.7894 513.542 72.3018L504.829 77.3165L508.502 84.5113C508.946 85.3773 508.992 86.3666 508.63 87.2626C508.268 88.1585 507.528 88.8876 506.573 89.2893C505.617 89.6911 504.524 89.7319 503.535 89.4036C502.545 89.0753 501.74 88.4043 501.296 87.5392L498.062 81.2231L494.738 83.1374C493.849 83.6489 492.772 83.8194 491.744 83.6117C490.716 83.404 489.82 82.8346 489.255 82.0293C488.689 81.224 488.5 80.2483 488.729 79.317C488.958 78.3857 489.586 77.575 490.475 77.0635L494.69 74.635L491.485 68.3924C491.261 67.9626 491.134 67.4974 491.11 67.0222C491.087 66.548 491.167 66.0737 491.347 65.6276C491.527 65.1814 491.803 64.7715 492.159 64.4233C492.514 64.0742 492.943 63.7921 493.42 63.5945Z" fill="white" fill-opacity="0.38"/>
<path d="M530.201 156.332C532.395 157.032 534.768 157.127 537.021 156.606C539.273 156.084 541.304 154.97 542.857 153.402C544.409 151.835 545.413 149.885 545.742 147.8C546.071 145.716 545.71 143.589 544.705 141.689C543.7 139.789 542.095 138.202 540.094 137.128C538.093 136.053 535.786 135.541 533.464 135.654C531.142 135.768 528.91 136.502 527.05 137.765C525.189 139.028 523.784 140.762 523.013 142.748C521.981 145.412 522.159 148.338 523.507 150.885C524.854 153.432 527.262 155.391 530.201 156.332ZM535.369 143.03C536.08 143.258 536.702 143.671 537.154 144.218C537.607 144.764 537.87 145.42 537.911 146.102C537.952 146.784 537.769 147.462 537.384 148.05C537 148.637 536.432 149.108 535.752 149.404C535.072 149.698 534.311 149.804 533.564 149.707C532.817 149.609 532.119 149.315 531.558 148.858C530.996 148.402 530.597 147.805 530.41 147.143C530.222 146.481 530.256 145.785 530.506 145.14C530.843 144.276 531.544 143.57 532.455 143.174C533.367 142.778 534.415 142.728 535.369 143.03Z" fill="white" fill-opacity="0.38"/>
<path d="M439.379 127.564C436.258 126.567 434.618 123.468 435.716 120.641C436.814 117.814 440.235 116.33 443.356 117.327C446.478 118.323 448.118 121.422 447.02 124.249C445.922 127.076 442.501 128.559 439.379 127.564Z" fill="white" fill-opacity="0.38"/>
<path d="M607.348 101.854C608.484 102.674 610.385 103.361 613.304 102.499C614.918 101.951 616.475 101.278 617.957 100.483C619.364 99.784 622.193 98.3784 623.395 98.3086C623.865 99.4494 623.391 102.884 623.143 104.583C622.556 108.752 622.002 112.69 625.367 114.756C631.007 118.222 637.316 114.318 639.691 112.848C640.561 112.31 641.159 111.48 641.354 110.543C641.548 109.605 641.324 108.636 640.729 107.848C640.135 107.059 639.219 106.517 638.184 106.34C637.148 106.164 636.078 106.367 635.208 106.904C632.804 108.393 631.425 108.86 630.64 108.931C630.676 107.971 630.876 106.542 631.021 105.496C631.664 100.931 632.467 95.258 628.043 92.3807C623.62 89.5033 618.123 92.1939 614.136 94.1726L613.187 94.6405C613.291 93.8706 613.421 93.069 613.53 92.4016C614.372 87.1864 615.419 80.6917 610.659 77.253C605.899 73.8153 600.814 76.9538 597.798 78.8409C596.562 79.6144 594.283 81.0399 593.675 80.7806C593.53 80.0125 594.342 77.8425 594.779 76.6491C596.068 73.1379 598.03 67.8466 593.116 64.6001C588.041 61.2539 582.795 64.9193 579.655 67.1048C578.688 67.8166 577.665 68.4632 576.594 69.0381C575.631 68.0923 575.008 66.5244 574.915 64.845C574.791 62.6659 575.544 60.6817 576.982 59.4103C577.394 59.0902 577.728 58.6967 577.965 58.2551C578.202 57.8125 578.337 57.331 578.361 56.8395C578.384 56.3489 578.296 55.8583 578.102 55.3995C577.909 54.9397 577.613 54.5217 577.234 54.1698C576.855 53.818 576.4 53.5396 575.898 53.3528C575.395 53.1669 574.856 53.0753 574.314 53.0844C573.771 53.0943 573.236 53.204 572.743 53.4081C572.249 53.6121 571.806 53.905 571.443 54.2705C568.381 56.9828 566.757 60.9683 566.997 65.2122C567.213 69.2195 569.127 72.8976 572.091 75.0368C573.325 75.9236 575.95 77.1878 579.704 75.6715C581.404 74.9814 582.99 73.8778 584.524 72.7942C585.57 72.0642 587.429 70.7702 588.369 70.4963C588.367 71.3587 587.689 73.2059 587.262 74.3621C586.005 77.779 583.905 83.5047 589.247 86.7348C594.269 89.7827 599.133 86.7584 602.338 84.7507C603.362 84.1095 605.039 83.0595 605.786 82.9162C606.895 83.8965 606.043 89.1007 605.69 91.3442C605.033 95.3179 604.538 98.4637 606.277 100.765C606.574 101.173 606.935 101.541 607.348 101.854Z" fill="white" fill-opacity="0.38"/>
<path d="M418.682 255.965C419.638 255.564 420.731 255.523 421.721 255.852C422.71 256.181 423.515 256.852 423.959 257.718L426.717 263.102L434.541 258.597C435.43 258.086 436.507 257.915 437.535 258.123C438.564 258.331 439.459 258.9 440.024 259.705C440.59 260.511 440.779 261.486 440.55 262.418C440.321 263.349 439.693 264.16 438.804 264.671L430.091 269.687L433.764 276.882C433.998 277.311 434.136 277.78 434.167 278.259C434.199 278.738 434.125 279.218 433.949 279.67C433.773 280.123 433.498 280.539 433.142 280.893C432.786 281.249 432.355 281.535 431.874 281.737C431.394 281.939 430.873 282.051 430.344 282.069C429.815 282.085 429.287 282.006 428.792 281.835C428.297 281.664 427.844 281.406 427.461 281.075C427.077 280.743 426.771 280.346 426.56 279.906L423.326 273.59L420.002 275.504C419.113 276.016 418.036 276.186 417.007 275.978C415.979 275.771 415.084 275.201 414.518 274.396C413.953 273.591 413.764 272.615 413.993 271.684C414.222 270.752 414.85 269.942 415.738 269.43L419.952 267.005L416.747 260.763C416.523 260.333 416.396 259.867 416.372 259.392C416.349 258.918 416.429 258.444 416.609 257.998C416.789 257.552 417.065 257.142 417.421 256.793C417.777 256.444 418.205 256.162 418.682 255.965Z" fill="white" fill-opacity="0.38"/>
<path d="M532.613 294.225C533.748 295.044 535.649 295.732 538.569 294.868C540.182 294.322 541.739 293.647 543.222 292.853C544.629 292.154 547.457 290.752 548.66 290.678C549.128 291.823 548.656 295.254 548.408 296.953C547.821 301.122 547.267 305.06 550.63 307.129C556.272 310.592 562.581 306.688 564.956 305.218C565.399 304.957 565.781 304.618 566.077 304.22C566.374 303.824 566.58 303.377 566.684 302.907C566.787 302.438 566.786 301.953 566.68 301.484C566.574 301.014 566.365 300.568 566.066 300.172C565.768 299.777 565.385 299.439 564.94 299.179C564.495 298.919 563.997 298.742 563.476 298.659C562.955 298.575 562.421 298.587 561.905 298.693C561.389 298.8 560.902 298.999 560.472 299.278C558.068 300.764 556.69 301.231 555.904 301.301C555.939 300.345 556.141 298.912 556.286 297.865C556.929 293.301 557.732 287.628 553.308 284.751C548.884 281.874 543.388 284.563 539.401 286.543L538.452 287.011C538.556 286.241 538.686 285.439 538.793 284.775C539.637 279.557 540.684 273.061 535.922 269.627C531.161 266.192 526.079 269.323 523.062 271.211C521.826 271.985 519.547 273.413 518.938 273.154C518.795 272.382 519.606 270.213 520.043 269.019C521.332 265.508 523.295 260.217 518.379 256.974C513.305 253.624 508.059 257.293 504.919 259.474C503.954 260.188 502.931 260.834 501.858 261.408C500.894 260.466 500.272 258.895 500.18 257.215C500.056 255.035 500.807 253.056 502.245 251.784C502.655 251.463 502.987 251.07 503.223 250.628C503.458 250.186 503.591 249.706 503.614 249.216C503.637 248.726 503.548 248.237 503.355 247.779C503.161 247.321 502.866 246.903 502.488 246.552C502.11 246.201 501.657 245.923 501.156 245.737C500.655 245.55 500.117 245.457 499.576 245.465C499.035 245.474 498.501 245.582 498.008 245.785C497.514 245.986 497.072 246.278 496.707 246.64C493.645 249.352 492.02 253.342 492.261 257.582C492.476 261.593 494.391 265.268 497.356 267.406C498.588 268.298 501.213 269.561 504.969 268.042C506.669 267.352 508.255 266.248 509.782 265.182C510.828 264.452 512.688 263.155 513.627 262.884C513.626 263.743 512.947 265.593 512.521 266.747C511.264 270.164 509.164 275.889 514.505 279.122C519.527 282.171 524.392 279.143 527.597 277.134C528.622 276.494 530.298 275.443 531.045 275.3C532.154 276.28 531.302 281.485 530.948 283.733C530.292 287.703 529.797 290.848 531.535 293.154C531.834 293.556 532.197 293.917 532.613 294.225Z" fill="white" fill-opacity="0.38"/>
<path d="M844.057 99.6435C844.817 99.8856 845.64 99.9137 846.417 99.7233C847.194 99.5319 847.889 99.132 848.409 98.5752L864.555 81.2984C864.908 80.9402 865.178 80.5213 865.349 80.0669C865.52 79.6126 865.589 79.1311 865.552 78.6523C865.515 78.1735 865.372 77.7055 865.132 77.2766C864.892 76.8486 864.56 76.4677 864.155 76.1576C863.75 75.8475 863.281 75.6135 862.775 75.4693C862.269 75.326 861.736 75.2762 861.208 75.3215C860.681 75.3678 860.168 75.5083 859.702 75.7368C859.235 75.9644 858.824 76.2746 858.492 76.6491L842.342 93.925C841.927 94.3694 841.637 94.8989 841.497 95.4684C841.358 96.037 841.373 96.6283 841.542 97.1914C841.711 97.7536 842.028 98.2705 842.466 98.6976C842.904 99.1248 843.45 99.4494 844.057 99.6435Z" fill="white" fill-opacity="0.38"/>
<path d="M713.862 80.8577C714.513 81.4734 715.384 81.8616 716.32 81.9504C717.257 82.0393 718.198 81.8253 718.976 81.3447C719.753 80.8641 720.318 80.1495 720.568 79.327C720.818 78.5054 720.738 77.6294 720.342 76.855C719.076 74.4075 719.361 71.1184 721.087 68.261C722.527 65.8779 724.727 64.2438 726.822 63.9971C728.189 63.8348 730.141 65.8389 732.007 67.7677C735.38 71.229 739.998 75.9672 747.503 74.7929C754.861 73.6448 756.878 66.7167 758.367 61.6639C758.926 59.7468 759.964 56.1839 760.862 55.7196C761.029 55.7133 761.197 55.7287 761.359 55.7659C765.231 56.524 769.003 65.3837 768.614 78.9017C768.592 79.853 768.986 80.7734 769.711 81.4617C770.436 82.1508 771.433 82.5508 772.483 82.5762C773.533 82.6015 774.55 82.2488 775.314 81.5959C776.077 80.9429 776.523 80.0425 776.556 79.0921C776.69 74.49 776.654 51.3941 763.026 48.7343C759.15 47.9753 755.833 49.2766 753.683 52.3925C752.24 54.4854 751.452 57.2005 750.684 59.8266C749.414 64.2383 748.33 67.3687 746.163 67.7097C743.333 68.1467 741.415 66.5353 737.977 63.0132C735.02 59.9772 731.34 56.2011 725.786 56.8613C721.148 57.3891 716.79 60.378 714.122 64.7815C711.159 69.6811 710.793 75.3252 713.135 79.8747C713.314 80.2365 713.56 80.5693 713.862 80.8577Z" fill="white" fill-opacity="0.38"/>
<path d="M806.185 28.1957C808.378 28.8948 810.751 28.9891 813.004 28.4677C815.256 27.9454 817.286 26.83 818.838 25.2621C820.39 23.6951 821.394 21.7454 821.722 19.6606C822.051 17.5758 821.689 15.4493 820.684 13.5495C819.678 11.6497 818.073 10.0628 816.072 8.9891C814.071 7.91542 811.764 7.40307 809.442 7.51643C807.121 7.62978 804.889 8.36431 803.028 9.62752C801.168 10.8898 799.763 12.6237 798.992 14.6105C797.96 17.2748 798.138 20.202 799.487 22.7493C800.835 25.2956 803.244 27.2544 806.185 28.1957ZM811.352 14.8943C812.063 15.122 812.684 15.5355 813.136 16.0823C813.587 16.6291 813.85 17.2856 813.89 17.9676C813.931 18.6495 813.747 19.3269 813.362 19.9136C812.978 20.5012 812.41 20.9719 811.73 21.2666C811.049 21.5613 810.288 21.6665 809.542 21.5686C808.795 21.4716 808.097 21.1759 807.536 20.7198C806.975 20.2637 806.576 19.667 806.389 19.005C806.202 18.343 806.235 17.6466 806.486 17.0027C806.822 16.1385 807.524 15.4312 808.437 15.0358C809.349 14.6404 810.398 14.5896 811.352 14.8943Z" fill="white" fill-opacity="0.38"/>
<path d="M715.359 -0.572508C712.237 -1.56911 710.597 -4.66773 711.695 -7.49521C712.794 -10.3218 716.214 -11.8053 719.336 -10.8087C722.457 -9.81305 724.098 -6.71353 722.999 -3.88695C721.901 -1.06038 718.48 0.424093 715.359 -0.572508Z" fill="white" fill-opacity="0.38"/>
<path d="M889.014 -57.0124C888.664 -58.2919 887.625 -59.8906 884.739 -60.8274C883.093 -61.2899 881.406 -61.6218 879.696 -61.8195C878.109 -62.0444 874.926 -62.5059 873.928 -63.1171C874.327 -64.2806 877.02 -66.7335 878.361 -67.9342C881.642 -70.9077 884.737 -73.717 883.47 -77.2183C881.349 -83.09 873.721 -83.5017 870.85 -83.6576C870.33 -83.6858 869.809 -83.6205 869.316 -83.4654C868.824 -83.3112 868.37 -83.07 867.98 -82.7553C867.591 -82.4416 867.274 -82.0616 867.047 -81.6354C866.82 -81.2101 866.687 -80.7485 866.657 -80.2761C866.627 -79.8045 866.699 -79.3312 866.87 -78.8841C867.042 -78.438 867.308 -78.0263 867.655 -77.6726C868.002 -77.3189 868.422 -77.0306 868.891 -76.8238C869.36 -76.617 869.87 -76.4964 870.39 -76.4683C873.294 -76.3142 874.696 -75.917 875.369 -75.5388C874.694 -74.7961 873.571 -73.7769 872.748 -73.0333C869.16 -69.7805 864.692 -65.7378 866.248 -61.0069C867.805 -56.276 873.967 -55.3538 878.458 -54.7027C878.783 -54.6583 879.149 -54.6057 879.525 -54.5458C878.921 -53.9981 878.279 -53.4331 877.746 -52.967C873.554 -49.3116 868.349 -44.7548 869.79 -39.3973C871.232 -34.0398 877.372 -33.6907 881.032 -33.5102C882.531 -33.4358 885.298 -33.2998 885.603 -32.7612C885.198 -32.0729 883.091 -30.8024 881.943 -30.1033C878.552 -28.0448 873.431 -24.9461 875.124 -19.6548C876.882 -14.1885 883.501 -14.1794 887.462 -14.1613C888.706 -14.1885 889.951 -14.1332 891.186 -13.9944C891.309 -12.7122 890.744 -11.1261 889.685 -9.74412C888.309 -7.94951 886.376 -6.8033 884.381 -6.59655C883.384 -6.43876 882.492 -5.94089 881.887 -5.20637C881.282 -4.47093 881.01 -3.55413 881.126 -2.64186C881.242 -1.7296 881.737 -0.89171 882.511 -0.299554C883.285 0.292603 884.278 0.595489 885.289 0.545614C889.546 0.101269 893.519 -2.15308 896.195 -5.63983C898.729 -8.92888 899.698 -12.8999 898.795 -16.2388C898.421 -17.6226 897.197 -20.0792 893.205 -20.9634C891.393 -21.3651 889.396 -21.3687 887.449 -21.366C886.129 -21.3696 883.788 -21.3751 882.857 -21.6834C883.441 -22.3635 885.226 -23.4453 886.342 -24.1255C889.642 -26.1305 895.167 -29.493 893.125 -35.0092C891.211 -40.2071 885.323 -40.5145 881.431 -40.7086C880.185 -40.7684 878.153 -40.87 877.466 -41.1711C877.251 -42.5621 881.437 -46.2048 883.23 -47.7836C886.432 -50.5612 888.947 -52.7748 889.125 -55.5597C889.165 -56.0466 889.128 -56.5354 889.014 -57.0124Z" fill="white" fill-opacity="0.38"/>
<path d="M769.321 292.013C770.081 292.255 770.904 292.283 771.681 292.092C772.458 291.901 773.153 291.501 773.673 290.945L789.817 273.671C790.477 272.941 790.793 272.006 790.698 271.066C790.604 270.127 790.105 269.258 789.31 268.648C788.515 268.037 787.487 267.734 786.448 267.803C785.41 267.873 784.443 268.309 783.756 269.018L767.606 286.294C767.191 286.739 766.901 287.268 766.761 287.838C766.622 288.406 766.637 288.998 766.806 289.561C766.975 290.123 767.292 290.64 767.73 291.067C768.168 291.494 768.714 291.819 769.321 292.013Z" fill="white" fill-opacity="0.38"/>
<path d="M639.128 273.225C639.777 273.845 640.649 274.236 641.587 274.327C642.524 274.419 643.467 274.205 644.247 273.724C645.026 273.242 645.591 272.526 645.84 271.703C646.089 270.878 646.006 270.001 645.606 269.227C644.342 266.776 644.627 263.487 646.352 260.633C647.792 258.25 649.99 256.619 652.087 256.369C653.453 256.207 655.406 258.211 657.272 260.14C660.644 263.601 665.263 268.338 672.768 267.165C680.125 266.017 682.143 259.089 683.632 254.036C684.189 252.122 685.229 248.556 686.127 248.092C686.294 248.088 686.46 248.104 686.622 248.142C690.496 248.896 694.267 257.756 693.879 271.274C693.857 272.224 694.251 273.144 694.976 273.834C695.701 274.522 696.698 274.923 697.747 274.948C698.797 274.974 699.815 274.621 700.578 273.968C701.342 273.315 701.788 272.415 701.82 271.463C701.955 266.861 701.917 243.769 688.291 241.106C684.415 240.346 681.098 241.649 678.946 244.768C677.505 246.857 676.716 249.573 675.949 252.198C674.678 256.61 673.594 259.744 671.428 260.081C668.598 260.519 666.68 258.906 663.242 255.384C660.285 252.349 656.605 248.573 651.051 249.233C646.406 249.778 642.055 252.749 639.38 257.171C636.418 262.067 636.052 267.711 638.393 272.264C638.576 272.619 638.825 272.945 639.128 273.225Z" fill="white" fill-opacity="0.38"/>
<path d="M694.664 127.829C695.137 127.63 695.649 127.518 696.17 127.498C696.691 127.478 697.211 127.552 697.701 127.714C698.191 127.877 698.64 128.125 699.024 128.445C699.408 128.766 699.718 129.152 699.938 129.58L702.697 134.962L710.519 130.46C710.959 130.207 711.45 130.035 711.964 129.953C712.478 129.872 713.004 129.882 713.513 129.986C714.023 130.088 714.505 130.281 714.932 130.553C715.359 130.824 715.723 131.169 716.003 131.568C716.283 131.967 716.473 132.412 716.563 132.877C716.653 133.343 716.642 133.819 716.528 134.281C716.415 134.741 716.202 135.178 715.903 135.565C715.603 135.952 715.223 136.281 714.783 136.534L706.069 141.55L709.742 148.744C710.186 149.61 710.232 150.6 709.87 151.496C709.508 152.392 708.768 153.121 707.813 153.523C706.857 153.923 705.764 153.965 704.775 153.637C703.786 153.309 702.98 152.637 702.537 151.772L699.302 145.456L695.979 147.371C695.086 147.881 694.006 148.051 692.976 147.84C691.946 147.63 691.049 147.058 690.485 146.249C689.92 145.441 689.733 144.462 689.964 143.529C690.196 142.596 690.827 141.785 691.719 141.274L695.935 138.846L692.729 132.603C692.51 132.174 692.386 131.711 692.364 131.239C692.343 130.767 692.424 130.295 692.604 129.852C692.783 129.408 693.058 129.002 693.411 128.655C693.765 128.307 694.191 128.026 694.664 127.829Z" fill="white" fill-opacity="0.38"/>
<path d="M731.45 220.564C733.644 221.265 736.017 221.362 738.27 220.842C740.524 220.321 742.556 219.207 744.109 217.64C745.663 216.073 746.668 214.125 746.998 212.04C747.328 209.954 746.968 207.828 745.963 205.927C744.959 204.026 743.354 202.438 741.353 201.364C739.353 200.288 737.045 199.775 734.723 199.888C732.4 200.001 730.168 200.735 728.307 201.999C726.446 203.261 725.041 204.996 724.269 206.983C723.238 209.645 723.415 212.57 724.761 215.116C726.107 217.661 728.513 219.621 731.45 220.564ZM736.618 207.263C737.329 207.49 737.949 207.904 738.401 208.451C738.853 208.998 739.116 209.654 739.156 210.336C739.196 211.018 739.013 211.695 738.628 212.282C738.243 212.87 737.675 213.34 736.995 213.635C736.315 213.929 735.554 214.035 734.807 213.937C734.061 213.84 733.363 213.544 732.802 213.088C732.24 212.632 731.841 212.035 731.654 211.373C731.467 210.711 731.501 210.015 731.751 209.37C732.088 208.507 732.79 207.8 733.702 207.404C734.615 207.009 735.663 206.958 736.618 207.263Z" fill="white" fill-opacity="0.38"/>
<path d="M640.625 191.796C637.503 190.799 635.863 187.701 636.961 184.874C638.059 182.047 641.48 180.563 644.601 181.56C647.723 182.555 649.363 185.655 648.265 188.481C647.167 191.308 643.746 192.792 640.625 191.796Z" fill="white" fill-opacity="0.38"/>
<path d="M802.86 166.109C803.66 167.212 805.229 168.403 808.297 168.407C810.019 168.345 811.731 168.145 813.414 167.81C814.991 167.544 818.163 167.009 819.329 167.283C819.383 168.5 817.751 171.628 816.927 173.171C814.936 176.965 813.058 180.552 815.544 183.467C819.71 188.355 827.047 186.431 829.81 185.707C830.822 185.441 831.675 184.823 832.183 183.986C832.69 183.149 832.81 182.165 832.516 181.247C832.222 180.33 831.538 179.556 830.615 179.094C829.691 178.633 828.604 178.524 827.592 178.789C824.798 179.526 823.328 179.58 822.557 179.424C822.919 178.52 823.601 177.219 824.102 176.268C826.282 172.114 828.997 166.951 825.784 162.965C822.571 158.981 816.424 159.982 811.951 160.732L810.889 160.908C811.256 160.209 811.651 159.481 811.985 158.877C814.582 154.163 817.808 148.287 814.472 143.675C811.136 139.064 805.218 140.603 801.703 141.543C800.262 141.929 797.608 142.638 797.122 142.223C797.249 141.451 798.763 139.616 799.589 138.606C802.024 135.637 805.706 131.163 802.157 126.69C798.483 122.074 792.242 124.074 788.503 125.26C787.341 125.664 786.148 125.989 784.933 126.233C784.344 125.063 784.291 123.397 784.778 121.773C785.409 119.666 786.811 117.997 788.614 117.196C789.491 116.743 790.143 116.003 790.439 115.128C790.735 114.253 790.651 113.309 790.206 112.488C789.761 111.665 788.987 111.028 788.042 110.704C787.097 110.381 786.052 110.396 785.12 110.745C781.274 112.453 778.363 115.784 777.128 119.881C775.955 123.75 776.508 127.786 778.592 130.658C779.455 131.849 781.515 133.791 785.603 133.414C787.459 133.241 789.342 132.638 791.176 132.045C792.421 131.647 794.629 130.942 795.619 130.95C795.32 131.769 794.037 133.329 793.237 134.31C790.868 137.201 786.903 142.046 790.863 146.624C794.586 150.941 800.247 149.443 803.987 148.444C805.181 148.126 807.135 147.601 807.894 147.677C808.61 148.922 806.011 153.626 804.903 155.657C802.912 159.247 801.359 162.096 802.22 164.774C802.361 165.245 802.576 165.695 802.86 166.109Z" fill="white" fill-opacity="0.38"/>
<path d="M1045.3 163.876C1046.06 164.118 1046.89 164.145 1047.66 163.954C1048.44 163.764 1049.13 163.364 1049.65 162.808L1065.8 145.531C1066.14 145.171 1066.39 144.754 1066.55 144.304C1066.71 143.854 1066.77 143.38 1066.73 142.909C1066.68 142.438 1066.54 141.979 1066.3 141.56C1066.06 141.139 1065.73 140.766 1065.33 140.46C1064.93 140.155 1064.47 139.924 1063.98 139.779C1063.48 139.635 1062.96 139.582 1062.44 139.621C1061.92 139.66 1061.41 139.791 1060.95 140.008C1060.48 140.224 1060.07 140.521 1059.73 140.881L1043.59 158.158C1043.17 158.603 1042.88 159.133 1042.74 159.702C1042.6 160.271 1042.62 160.862 1042.79 161.424C1042.96 161.987 1043.27 162.504 1043.71 162.932C1044.15 163.359 1044.7 163.683 1045.3 163.876Z" fill="white" fill-opacity="0.38"/>
<path d="M915.108 118.731C915.757 118.109 916.63 117.716 917.569 117.624C918.509 117.531 919.454 117.745 920.234 118.228C921.015 118.709 921.58 119.428 921.828 120.254C922.076 121.08 921.991 121.959 921.588 122.733C920.322 125.181 920.607 128.47 922.337 131.326C923.777 133.709 925.973 135.345 928.072 135.59C929.439 135.752 931.387 133.749 933.257 131.819C936.63 128.359 941.248 123.621 948.753 124.794C956.111 125.942 958.128 132.87 959.617 137.923C960.176 139.84 961.214 143.403 962.108 143.868C962.276 143.876 962.443 143.86 962.605 143.823C966.482 143.065 970.252 134.203 969.862 120.685C969.852 120.212 969.932 119.74 970.122 119.297C970.312 118.854 970.592 118.448 970.952 118.104C971.302 117.759 971.742 117.482 972.212 117.289C972.692 117.096 973.212 116.99 973.732 116.977C974.252 116.965 974.772 117.046 975.262 117.216C975.752 117.386 976.202 117.642 976.572 117.969C976.952 118.296 977.262 118.688 977.472 119.121C977.682 119.555 977.792 120.022 977.802 120.496C977.932 125.099 977.902 148.195 964.277 150.853C960.4 151.613 957.079 150.311 954.933 147.195C953.491 145.102 952.698 142.388 951.934 139.761C950.664 135.349 949.576 132.219 947.413 131.878C944.583 131.44 942.661 133.054 939.228 136.575C936.271 139.61 932.591 143.386 927.032 142.727C922.394 142.2 918.041 139.209 915.372 134.806C912.405 129.908 912.043 124.262 914.385 119.712C914.566 119.352 914.81 119.02 915.108 118.731Z" fill="white" fill-opacity="0.38"/>
<path d="M970.642 -0.314981C971.602 -0.714891 972.692 -0.754772 973.682 -0.425594C974.672 -0.0973236 975.482 0.572813 975.922 1.43792L978.672 6.83172L986.492 2.32751C986.932 2.0736 987.432 1.90131 987.942 1.8206C988.452 1.73899 988.982 1.74987 989.492 1.85234C990.002 1.95572 990.482 2.14798 990.912 2.42002C991.332 2.69116 991.702 3.03665 991.982 3.43475C992.262 3.83375 992.452 4.279 992.542 4.74421C992.632 5.20941 992.622 5.6864 992.502 6.14797C992.392 6.60864 992.182 7.04481 991.882 7.43203C991.582 7.81833 991.202 8.14751 990.762 8.40142L982.042 13.4171L985.722 20.6127C986.162 21.4788 986.212 22.4681 985.852 23.364C985.482 24.26 984.742 24.9882 983.792 25.389C982.832 25.7898 981.742 25.8306 980.752 25.5014C979.762 25.1722 978.962 24.5012 978.512 23.6352L975.282 17.3237L971.962 19.2335C971.072 19.7449 969.992 19.9163 968.962 19.7086C967.932 19.501 967.042 18.9315 966.472 18.1262C965.912 17.32 965.722 16.3443 965.952 15.413C966.182 14.4817 966.802 13.671 967.692 13.1595L971.912 10.7347L968.702 4.49301C968.482 4.06136 968.352 3.59526 968.332 3.11918C968.302 2.64401 968.392 2.16882 968.572 1.72175C968.752 1.27469 969.022 0.864806 969.382 0.514772C969.742 0.165644 970.172 -0.116386 970.642 -0.314981Z" fill="white" fill-opacity="0.38"/>
<path d="M1007.43 92.427C1009.62 93.1271 1011.99 93.2223 1014.25 92.7009C1016.5 92.1795 1018.53 91.065 1020.08 89.4971C1021.63 87.9301 1022.64 85.9804 1022.97 83.8956C1023.3 81.8108 1022.94 79.6834 1021.93 77.7836C1020.93 75.8847 1019.32 74.2969 1017.32 73.2223C1015.32 72.1486 1013.01 71.6354 1010.69 71.7487C1008.37 71.863 1006.14 72.5966 1004.27 73.8598C1002.41 75.1221 1001.01 76.8569 1000.24 78.8437C999.212 81.5071 999.382 84.4334 1000.73 86.9797C1002.08 89.527 1004.49 91.4857 1007.43 92.427ZM1012.59 79.1257C1013.31 79.3524 1013.93 79.7659 1014.38 80.3128C1014.83 80.8596 1015.1 81.5152 1015.14 82.1971C1015.18 82.8791 1014.99 83.5574 1014.61 84.145C1014.23 84.7326 1013.66 85.2033 1012.98 85.498C1012.3 85.7936 1011.54 85.8988 1010.79 85.8018C1010.04 85.7047 1009.34 85.41 1008.78 84.953C1008.22 84.4969 1007.82 83.9001 1007.63 83.2382C1007.45 82.5762 1007.48 81.8798 1007.73 81.235C1008.07 80.3717 1008.77 79.6644 1009.68 79.269C1010.59 78.8736 1011.64 78.8219 1012.59 79.1257Z" fill="white" fill-opacity="0.38"/>
<path d="M916.603 63.6589C913.482 62.6623 911.841 59.5628 912.94 56.7362C914.038 53.9096 917.459 52.4251 920.58 53.4217C923.702 54.4183 925.342 57.517 924.243 60.3444C923.145 63.171 919.725 64.6546 916.603 63.6589Z" fill="white" fill-opacity="0.38"/>
<path d="M1090.42 36.0958C1091.8 36.5184 1093.84 36.5855 1096.27 34.887C1097.59 33.8795 1098.8 32.7696 1099.91 31.5708C1100.98 30.4799 1103.12 28.2981 1104.22 27.8655C1105.09 28.7977 1105.91 32.1765 1106.31 33.8487C1107.3 37.9575 1108.24 41.8351 1112.18 42.7556C1118.77 44.3017 1123.27 38.6984 1124.96 36.5901C1125.55 35.8165 1125.78 34.8653 1125.61 33.9385C1125.44 33.0117 1124.87 32.1829 1124.03 31.6306C1123.19 31.0784 1122.14 30.8453 1121.12 30.9822C1120.09 31.1192 1119.16 31.6143 1118.53 32.3615C1116.82 34.4971 1115.7 35.3531 1114.99 35.6624C1114.66 34.7474 1114.32 33.34 1114.07 32.3107C1112.99 27.8165 1111.64 22.2241 1106.4 20.8621C1101.17 19.5009 1096.99 23.7095 1093.97 26.7882C1093.75 27.0131 1093.5 27.2633 1093.25 27.5182C1093.06 26.7619 1092.89 25.9666 1092.74 25.3082C1091.6 20.1366 1090.18 13.7036 1084.42 11.9163C1078.67 10.128 1075.04 14.6304 1072.9 17.3273C1072.02 18.4327 1070.4 20.4722 1069.73 20.415C1069.31 19.7349 1069.27 17.4397 1069.24 16.1865C1069.16 12.4867 1069.04 6.90513 1063.22 5.34539C1057.19 3.74031 1053.61 8.79042 1051.46 11.8056C1050.82 12.7705 1050.09 13.6909 1049.3 14.5597C1048.04 13.963 1046.87 12.6762 1046.16 11.1228C1045.24 9.10328 1045.21 7.00942 1046.09 5.37351C1046.48 4.52744 1046.5 3.578 1046.15 2.72015C1045.79 1.86138 1045.09 1.15858 1044.18 0.755948C1043.27 0.352411 1042.22 0.278974 1041.25 0.551021C1040.29 0.822162 1039.47 1.41795 1038.97 2.21686C1037.09 5.70814 1037.04 9.9575 1038.83 13.8813C1040.52 17.5902 1043.69 20.4703 1047.28 21.5812C1048.76 22.0418 1051.7 22.4318 1054.68 19.86C1056.03 18.6921 1057.11 17.1695 1058.16 15.6805C1058.87 14.6739 1060.14 12.8893 1060.93 12.3452C1061.24 13.1577 1061.29 15.1038 1061.31 16.3234C1061.4 19.9244 1061.54 25.9566 1067.77 27.3713C1073.63 28.7116 1077.09 24.3815 1079.36 21.5132C1080.09 20.5937 1081.28 19.0974 1081.93 18.7347C1083.34 19.3205 1084.47 24.4812 1084.96 26.702C1085.82 30.6449 1086.51 33.759 1089.01 35.3967C1089.44 35.6905 1089.91 35.9263 1090.42 36.0958Z" fill="white" fill-opacity="0.38"/>
<path d="M895.91 192.058C896.866 191.657 897.959 191.617 898.948 191.946C899.938 192.274 900.743 192.945 901.187 193.811L903.942 199.191L911.765 194.69C912.205 194.437 912.696 194.264 913.21 194.183C913.723 194.101 914.25 194.112 914.759 194.215C915.268 194.318 915.75 194.511 916.177 194.782C916.604 195.054 916.968 195.399 917.248 195.798C917.528 196.197 917.719 196.641 917.809 197.106C917.899 197.572 917.887 198.049 917.774 198.51C917.661 198.972 917.448 199.408 917.149 199.794C916.849 200.181 916.468 200.51 916.028 200.763L907.315 205.779L910.992 212.975C911.435 213.841 911.481 214.831 911.119 215.727C910.756 216.624 910.016 217.353 909.06 217.754C908.104 218.155 907.01 218.196 906.021 217.867C905.031 217.539 904.226 216.868 903.782 216.001L900.548 209.686L897.224 211.6C896.335 212.111 895.258 212.282 894.23 212.074C893.201 211.867 892.306 211.297 891.741 210.492C891.175 209.687 890.986 208.711 891.215 207.78C891.444 206.848 892.072 206.038 892.961 205.526L897.176 203.098L893.971 196.855C893.748 196.425 893.621 195.959 893.598 195.485C893.575 195.011 893.656 194.536 893.837 194.09C894.017 193.644 894.293 193.235 894.649 192.886C895.004 192.538 895.433 192.256 895.91 192.058Z" fill="white" fill-opacity="0.38"/>
<path d="M841.869 256.029C838.747 255.032 837.107 251.933 838.205 249.106C839.303 246.28 842.724 244.795 845.846 245.792C848.967 246.788 850.607 249.887 849.509 252.715C848.411 255.541 844.99 257.025 841.869 256.029Z" fill="white" fill-opacity="0.38"/>
<path d="M1009.84 230.318C1010.98 231.138 1012.88 231.825 1015.8 230.963C1017.41 230.415 1018.97 229.741 1020.45 228.947C1021.86 228.248 1024.69 226.842 1025.89 226.772C1026.36 227.914 1025.88 231.347 1025.64 233.046C1025.05 237.215 1024.49 241.153 1027.86 243.22C1033.5 246.687 1039.81 242.781 1042.18 241.311C1043.05 240.774 1043.65 239.945 1043.85 239.007C1044.04 238.068 1043.82 237.099 1043.22 236.311C1042.63 235.523 1041.71 234.981 1040.68 234.804C1039.64 234.627 1038.57 234.83 1037.7 235.368C1035.3 236.857 1033.92 237.326 1033.14 237.396C1033.17 236.434 1033.37 235.005 1033.52 233.961C1034.16 229.396 1034.96 223.722 1030.54 220.844C1026.11 217.967 1020.62 220.657 1016.63 222.636L1015.68 223.104C1015.78 222.334 1015.91 221.533 1016.02 220.865C1016.86 215.65 1017.91 209.155 1013.15 205.717C1008.39 202.279 1003.31 205.417 1000.29 207.304C999.052 208.079 996.782 209.503 996.172 209.245C996.022 208.476 996.832 206.306 997.272 205.113C998.562 201.603 1000.52 196.31 995.612 193.065C990.532 189.717 985.292 193.385 982.152 195.568C981.182 196.279 980.162 196.926 979.092 197.503C978.132 196.558 977.502 194.988 977.412 193.308C977.282 191.129 978.042 189.147 979.472 187.874C979.872 187.551 980.202 187.157 980.422 186.719C980.652 186.279 980.782 185.803 980.792 185.318C980.812 184.832 980.722 184.349 980.532 183.897C980.332 183.445 980.042 183.032 979.672 182.685C979.292 182.338 978.852 182.063 978.352 181.876C977.862 181.69 977.322 181.597 976.792 181.601C976.252 181.606 975.722 181.708 975.232 181.903C974.742 182.097 974.302 182.38 973.942 182.734C970.872 185.444 969.252 189.432 969.492 193.675C969.702 197.682 971.622 201.36 974.582 203.5C975.812 204.386 978.442 205.649 982.192 204.134C983.902 203.445 985.482 202.34 987.022 201.258C988.062 200.528 989.922 199.233 990.862 198.96C990.862 199.821 990.182 201.668 989.752 202.825C988.502 206.243 986.392 211.966 991.742 215.197C996.762 218.245 1001.62 215.221 1004.83 213.212C1005.85 212.572 1007.53 211.521 1008.28 211.38C1009.38 212.359 1008.54 217.564 1008.18 219.807C1007.52 223.78 1007.03 226.926 1008.77 229.228C1009.06 229.637 1009.43 230.004 1009.84 230.318Z" fill="white" fill-opacity="0.38"/>
<path d="M1321.28 35.7386C1322.04 35.9807 1322.86 36.0088 1323.64 35.8175C1324.42 35.627 1325.11 35.2271 1325.63 34.6703L1341.78 17.3935C1342.13 17.0353 1342.4 16.6164 1342.57 16.162C1342.74 15.7068 1342.81 15.2262 1342.77 14.7474C1342.74 14.2686 1342.59 13.8007 1342.35 13.3717C1342.11 12.9437 1341.78 12.5628 1341.38 12.2527C1340.97 11.9426 1340.5 11.7086 1340 11.5644C1339.49 11.4211 1338.96 11.3704 1338.43 11.4166C1337.9 11.462 1337.39 11.6034 1336.92 11.832C1336.46 12.0596 1336.05 12.3697 1335.71 12.7442L1319.57 30.0174C1319.23 30.3774 1318.98 30.7946 1318.82 31.2443C1318.66 31.6941 1318.6 32.1684 1318.64 32.639C1318.68 33.1097 1318.83 33.5685 1319.07 33.9884C1319.31 34.4092 1319.64 34.7828 1320.03 35.0875C1320.4 35.3722 1320.82 35.5926 1321.28 35.7386Z" fill="white" fill-opacity="0.38"/>
<path d="M1193.74 -13.8892C1193.54 -13.0567 1193.66 -12.1844 1194.1 -11.4281C1194.54 -10.6718 1195.26 -10.0805 1196.13 -9.75952C1197 -9.43941 1197.97 -9.41041 1198.86 -9.67702C1199.76 -9.94453 1200.52 -10.4904 1201.01 -11.2186C1202.55 -13.531 1205.73 -15.1406 1209.31 -15.4217C1212.29 -15.6557 1215.01 -14.9021 1216.4 -13.4585C1217.3 -12.5163 1216.55 -9.93273 1215.82 -7.43533C1214.51 -2.96741 1212.72 3.1446 1217.96 8.15753C1223.1 13.068 1230.57 10.7501 1236.03 9.05619C1238.1 8.41506 1241.94 7.22258 1242.87 7.64334C1242.97 7.76576 1243.05 7.90089 1243.1 8.04326C1244.55 11.3768 1238.5 19.1491 1225.87 26.3575C1225.43 26.6078 1225.04 26.9361 1224.74 27.3215C1224.44 27.7078 1224.22 28.1448 1224.1 28.6064C1223.99 29.0689 1223.97 29.5477 1224.06 30.0156C1224.15 30.4836 1224.33 30.9306 1224.61 31.3323C1224.89 31.7341 1225.25 32.0823 1225.68 32.3562C1226.11 32.63 1226.59 32.825 1227.1 32.9293C1227.61 33.0335 1228.14 33.0453 1228.65 32.9637C1229.17 32.883 1229.66 32.7098 1230.1 32.4559C1234.4 30.0011 1255.57 17.1668 1250.46 5.40802C1249 2.06184 1245.97 0.281746 1241.92 0.386031C1239.2 0.458577 1236.27 1.36902 1233.44 2.24864C1228.68 3.73583 1225.2 4.65174 1223.7 3.20807C1221.72 1.31643 1222.14 -1.02954 1223.46 -5.57273C1224.61 -9.49203 1226.03 -14.358 1222.35 -18.1866C1219.29 -21.395 1214.13 -23.0264 1208.61 -22.5975C1202.47 -22.1159 1197.09 -19.2603 1194.21 -14.9729C1193.99 -14.6373 1193.83 -14.271 1193.74 -13.8892Z" fill="white" fill-opacity="0.38"/>
<path d="M1246.54 228.107C1247.3 228.349 1248.13 228.377 1248.9 228.186C1249.68 227.995 1250.38 227.596 1250.9 227.039L1267.04 209.762C1267.39 209.404 1267.66 208.985 1267.84 208.53C1268.01 208.076 1268.08 207.595 1268.04 207.116C1268 206.636 1267.86 206.169 1267.62 205.74C1267.38 205.312 1267.05 204.931 1266.64 204.621C1266.24 204.311 1265.77 204.077 1265.26 203.933C1264.76 203.79 1264.22 203.739 1263.7 203.785C1263.17 203.83 1262.66 203.972 1262.19 204.2C1261.72 204.428 1261.31 204.738 1260.98 205.113L1244.83 222.389C1244.15 223.117 1243.82 224.06 1243.91 225.011C1243.99 225.961 1244.49 226.843 1245.3 227.46C1245.67 227.742 1246.09 227.961 1246.54 228.107Z" fill="white" fill-opacity="0.38"/>
<path d="M1116.35 209.32C1117 209.937 1117.87 210.324 1118.81 210.413C1119.75 210.503 1120.69 210.288 1121.46 209.808C1122.24 209.328 1122.81 208.612 1123.06 207.791C1123.31 206.968 1123.23 206.092 1122.83 205.319C1121.56 202.871 1121.85 199.581 1123.58 196.724C1125.02 194.341 1127.22 192.706 1129.31 192.46C1130.68 192.298 1132.63 194.302 1134.52 196.237C1137.89 199.7 1142.51 204.437 1150.01 203.264C1157.37 202.114 1159.39 195.187 1160.86 190.128C1161.42 188.211 1162.46 184.648 1163.35 184.184C1163.52 184.178 1163.69 184.193 1163.85 184.23C1167.72 184.988 1171.49 193.848 1171.11 207.367C1171.09 207.84 1171.18 208.313 1171.37 208.755C1171.55 209.199 1171.83 209.604 1172.19 209.949C1172.55 210.293 1172.98 210.571 1173.46 210.764C1173.94 210.957 1174.45 211.063 1174.98 211.076C1175.5 211.089 1176.02 211.007 1176.51 210.837C1177 210.666 1177.44 210.41 1177.82 210.084C1178.2 209.757 1178.5 209.365 1178.72 208.931C1178.93 208.498 1179.04 208.031 1179.05 207.557C1179.18 202.954 1179.15 179.859 1165.52 177.199C1161.64 176.439 1158.33 177.741 1156.18 180.857C1154.73 182.95 1153.94 185.665 1153.18 188.292C1151.91 192.704 1150.82 195.833 1148.66 196.175C1145.83 196.612 1143.91 194.999 1140.47 191.479C1137.51 188.442 1133.84 184.667 1128.28 185.326C1123.64 185.853 1119.28 188.842 1116.61 193.246C1113.65 198.146 1113.29 203.791 1115.63 208.339C1115.81 208.701 1116.05 209.033 1116.35 209.32Z" fill="white" fill-opacity="0.38"/>
<path d="M1171.89 63.9182C1172.85 63.5174 1173.94 63.4766 1174.93 63.8049C1175.92 64.134 1176.72 64.8042 1177.16 65.6693L1179.92 71.0649L1187.74 66.5607C1188.18 66.3068 1188.67 66.1345 1189.19 66.0529C1189.7 65.9722 1190.23 65.9831 1190.74 66.0855C1191.25 66.1889 1191.73 66.3812 1192.15 66.6532C1192.58 66.9243 1192.95 67.2699 1193.23 67.668C1193.51 68.067 1193.7 68.5122 1193.79 68.9774C1193.88 69.4426 1193.86 69.9196 1193.75 70.3812C1193.64 70.8418 1193.43 71.278 1193.13 71.6652C1192.83 72.0515 1192.45 72.3807 1192.01 72.6346L1183.29 77.6503L1186.96 84.8441C1187.2 85.2748 1187.34 85.7428 1187.37 86.2216C1187.4 86.7013 1187.33 87.181 1187.15 87.6335C1186.97 88.086 1186.7 88.5013 1186.34 88.8568C1185.99 89.2114 1185.56 89.4979 1185.08 89.7002C1184.59 89.9015 1184.07 90.0139 1183.55 90.0311C1183.02 90.0475 1182.49 89.9686 1181.99 89.7981C1181.5 89.6276 1181.05 89.3683 1180.66 89.0373C1180.28 88.7054 1179.97 88.3082 1179.76 87.8684L1176.53 81.556L1173.2 83.4667C1172.31 83.9781 1171.24 84.1495 1170.21 83.9418C1169.18 83.7333 1168.28 83.1647 1167.72 82.3594C1167.15 81.5532 1166.97 80.5775 1167.19 79.6462C1167.42 78.7149 1168.05 77.9042 1168.94 77.3927L1173.15 74.9679L1169.95 68.7262C1169.72 68.2946 1169.6 67.8275 1169.57 67.3524C1169.55 66.8763 1169.63 66.4011 1169.81 65.954C1169.99 65.507 1170.27 65.0971 1170.63 64.748C1170.98 64.3979 1171.41 64.1159 1171.89 63.9182Z" fill="white" fill-opacity="0.38"/>
<path d="M1208.67 156.659C1210.87 157.358 1213.24 157.453 1215.49 156.931C1217.74 156.409 1219.77 155.294 1221.33 153.726C1222.88 152.159 1223.88 150.209 1224.21 148.124C1224.54 146.039 1224.18 143.913 1223.17 142.013C1222.17 140.113 1220.56 138.527 1218.56 137.453C1216.56 136.379 1214.25 135.867 1211.93 135.98C1209.61 136.093 1207.38 136.828 1205.52 138.091C1203.66 139.353 1202.25 141.088 1201.48 143.074C1200.45 145.738 1200.63 148.666 1201.97 151.213C1203.32 153.759 1205.73 155.718 1208.67 156.659ZM1213.84 143.358C1214.55 143.586 1215.17 143.999 1215.62 144.546C1216.07 145.093 1216.34 145.749 1216.38 146.431C1216.42 147.113 1216.23 147.791 1215.85 148.377C1215.47 148.965 1214.9 149.436 1214.22 149.73C1213.54 150.025 1212.78 150.13 1212.03 150.033C1211.28 149.935 1210.58 149.64 1210.02 149.183C1209.46 148.727 1209.06 148.131 1208.88 147.469C1208.69 146.807 1208.72 146.11 1208.97 145.466C1209.31 144.602 1210.01 143.895 1210.92 143.499C1211.84 143.104 1212.88 143.053 1213.84 143.358Z" fill="white" fill-opacity="0.38"/>
<path d="M1117.85 127.891C1114.73 126.894 1113.09 123.796 1114.19 120.968C1115.28 118.142 1118.71 116.658 1121.83 117.654C1124.95 118.651 1126.59 121.75 1125.49 124.577C1124.39 127.403 1120.97 128.888 1117.85 127.891Z" fill="white" fill-opacity="0.38"/>
<path d="M1300.92 87.6905C1302.09 86.9143 1303.33 85.4371 1303.2 82.6568C1303.04 81.1016 1302.74 79.5609 1302.3 78.0528C1301.92 76.6345 1301.19 73.7889 1301.44 72.7198C1302.77 72.6137 1306.3 73.944 1308.03 74.6123C1312.31 76.2392 1316.35 77.7753 1319.44 75.3858C1324.63 71.3813 1322.16 64.824 1321.23 62.3557C1320.89 61.4516 1320.17 60.708 1319.23 60.2881C1318.28 59.8692 1317.19 59.8075 1316.19 60.1167C1315.2 60.4269 1314.38 61.0834 1313.91 61.9412C1313.45 62.7991 1313.38 63.7894 1313.72 64.6926C1314.66 67.1881 1314.79 68.5157 1314.66 69.2231C1313.65 68.9356 1312.18 68.3788 1311.11 67.9735C1306.43 66.1934 1300.61 63.9753 1296.37 67.0739C1292.13 70.1725 1293.53 75.6932 1294.57 79.7059L1294.81 80.6599C1294.02 80.3643 1293.2 80.0369 1292.53 79.7658C1287.2 77.6357 1280.58 74.9896 1275.66 78.2324C1270.74 81.4752 1272.71 86.7574 1273.91 89.8941C1274.41 91.1809 1275.32 93.5541 1274.88 94.0174C1274.02 93.9386 1271.93 92.6509 1270.78 91.9499C1267.39 89.8869 1262.29 86.7629 1257.53 90.1879C1252.62 93.7309 1255.12 99.2924 1256.6 102.62C1257.1 103.655 1257.52 104.722 1257.84 105.812C1256.59 106.386 1254.75 106.527 1252.93 106.163C1250.58 105.685 1248.68 104.499 1247.71 102.903C1247.17 102.126 1246.33 101.567 1245.35 101.337C1244.37 101.108 1243.33 101.227 1242.44 101.669C1241.56 102.113 1240.89 102.845 1240.58 103.72C1240.27 104.593 1240.33 105.541 1240.77 106.37C1242.83 109.775 1246.64 112.256 1251.21 113.178C1255.53 114.058 1259.95 113.367 1263.01 111.348C1264.29 110.506 1266.33 108.552 1265.72 104.867C1265.44 103.194 1264.69 101.513 1263.95 99.8828C1263.45 98.7738 1262.57 96.8041 1262.53 95.91C1263.45 96.1421 1265.23 97.2267 1266.35 97.9086C1269.64 99.9191 1275.17 103.282 1280.02 99.4756C1284.62 95.8837 1282.69 90.8417 1281.41 87.5055C1281 86.4364 1280.33 84.6935 1280.38 84.0025C1281.72 83.2952 1287.02 85.428 1289.31 86.3348C1293.36 87.9698 1296.57 89.2421 1299.48 88.3362C1299.99 88.1857 1300.48 87.968 1300.92 87.6905Z" fill="white" fill-opacity="0.38"/>
<path d="M1097.16 256.292C1097.63 256.093 1098.14 255.981 1098.66 255.961C1099.18 255.941 1099.7 256.015 1100.19 256.178C1100.68 256.34 1101.13 256.589 1101.52 256.909C1101.9 257.229 1102.21 257.614 1102.43 258.043L1105.19 263.424L1113.01 258.924C1113.45 258.671 1113.94 258.497 1114.46 258.417C1114.97 258.335 1115.5 258.346 1116 258.449C1116.51 258.552 1117 258.745 1117.42 259.016C1117.85 259.287 1118.21 259.633 1118.49 260.032C1118.77 260.43 1118.96 260.875 1119.05 261.34C1119.14 261.806 1119.13 262.283 1119.02 262.744C1118.91 263.205 1118.69 263.642 1118.39 264.028C1118.09 264.415 1117.71 264.745 1117.27 264.998L1108.56 270.013L1112.23 277.207C1112.68 278.073 1112.72 279.063 1112.36 279.959C1112 280.855 1111.26 281.584 1110.3 281.985C1109.35 282.387 1108.26 282.429 1107.27 282.1C1106.28 281.772 1105.47 281.101 1105.03 280.235L1101.79 273.92L1098.47 275.833C1097.58 276.345 1096.5 276.513 1095.47 276.302C1094.44 276.092 1093.54 275.519 1092.98 274.711C1092.41 273.904 1092.23 272.925 1092.46 271.992C1092.69 271.06 1093.32 270.249 1094.21 269.738L1098.43 267.31L1095.22 261.067C1095 260.639 1094.88 260.176 1094.86 259.704C1094.84 259.232 1094.92 258.76 1095.1 258.317C1095.28 257.874 1095.55 257.466 1095.9 257.118C1096.26 256.771 1096.68 256.491 1097.16 256.292Z" fill="white" fill-opacity="0.38"/>
<path d="M1211.08 294.551C1212.22 295.371 1214.12 296.057 1217.04 295.195C1218.65 294.648 1220.21 293.973 1221.69 293.18C1223.1 292.48 1225.93 291.074 1227.13 291.004C1227.6 292.146 1227.13 295.58 1226.88 297.28C1226.29 301.448 1225.74 305.387 1229.1 307.451C1234.74 310.918 1241.05 307.014 1243.43 305.544C1244.3 305.006 1244.9 304.176 1245.09 303.238C1245.28 302.3 1245.06 301.33 1244.46 300.541C1244.17 300.152 1243.79 299.817 1243.36 299.558C1242.92 299.3 1242.43 299.121 1241.92 299.034C1240.88 298.858 1239.81 299.061 1238.94 299.599C1236.54 301.089 1235.16 301.557 1234.38 301.627C1234.41 300.668 1234.61 299.237 1234.76 298.192C1235.4 293.628 1236.2 287.955 1231.78 285.077C1227.36 282.2 1221.86 284.89 1217.87 286.869L1216.92 287.337C1217.03 286.567 1217.16 285.766 1217.27 285.098C1218.11 279.882 1219.16 273.388 1214.4 269.95C1209.64 266.511 1204.55 269.649 1201.53 271.538C1200.3 272.311 1198.02 273.736 1197.41 273.477C1197.27 272.708 1198.07 270.537 1198.52 269.346C1199.8 265.835 1201.76 260.541 1196.85 257.297C1191.78 253.951 1186.53 257.616 1183.39 259.801C1182.43 260.513 1181.4 261.159 1180.33 261.735C1179.39 260.795 1178.74 259.221 1178.65 257.54C1178.53 255.362 1179.28 253.378 1180.72 252.107C1181.13 251.787 1181.46 251.393 1181.7 250.951C1181.94 250.509 1182.07 250.028 1182.1 249.536C1182.12 249.045 1182.03 248.555 1181.84 248.095C1181.65 247.636 1181.35 247.217 1180.97 246.866C1180.59 246.514 1180.14 246.236 1179.63 246.049C1179.13 245.863 1178.59 245.771 1178.05 245.781C1177.51 245.79 1176.97 245.901 1176.48 246.105C1175.99 246.308 1175.54 246.602 1175.18 246.966C1172.11 249.678 1170.49 253.665 1170.73 257.909C1170.95 261.916 1172.86 265.594 1175.83 267.733C1177.06 268.62 1179.68 269.883 1183.44 268.366C1185.14 267.678 1186.73 266.575 1188.26 265.49C1189.31 264.76 1191.17 263.467 1192.11 263.193C1192.1 264.055 1191.43 265.902 1191 267.059C1189.74 270.476 1187.64 276.2 1192.98 279.432C1198.03 282.486 1202.87 279.455 1206.07 277.446C1207.1 276.806 1208.78 275.755 1209.52 275.613C1210.63 276.592 1209.78 281.797 1209.43 284.041C1208.77 288.015 1208.27 291.16 1210.01 293.462C1210.31 293.87 1210.67 294.237 1211.08 294.551Z" fill="white" fill-opacity="0.38"/>
<path d="M1403.12 93.8007C1404.02 94.0692 1404.99 94.0392 1405.87 93.7182C1406.74 93.3963 1407.46 92.8032 1407.9 92.0442C1408.33 91.2861 1408.46 90.4119 1408.25 89.5795C1408.04 88.7461 1407.5 88.0079 1406.75 87.4983C1404.36 85.8832 1402.9 82.8572 1402.93 79.6026C1402.96 76.8893 1404.05 74.5062 1405.77 73.3881C1406.89 72.6635 1409.65 73.5903 1412.3 74.4944C1417.08 76.1013 1423.62 78.2995 1429.62 74.0501C1435.51 69.8832 1433.68 62.9161 1432.36 57.8252C1431.85 55.8955 1430.91 52.3108 1431.46 51.5164C1431.6 51.4393 1431.76 51.3813 1431.92 51.345C1435.73 50.3548 1443.67 56.5484 1450.37 68.63C1450.6 69.0535 1450.93 69.4307 1451.32 69.74C1451.72 70.0492 1452.18 70.2849 1452.67 70.4328C1453.17 70.5815 1453.7 70.6395 1454.22 70.6033C1454.74 70.5679 1455.25 70.4391 1455.72 70.2251C1456.18 70.012 1456.6 69.7182 1456.94 69.3591C1457.28 69 1457.55 68.5838 1457.71 68.1331C1457.87 67.6833 1457.94 67.2081 1457.9 66.7347C1457.86 66.2623 1457.72 65.8016 1457.48 65.379C1455.2 61.2648 1443.16 40.9202 1429.74 44.4114C1425.93 45.4062 1423.68 47.9752 1423.41 51.6415C1423.23 54.1045 1423.95 56.8349 1424.64 59.4747C1425.82 63.9073 1426.5 67.1346 1424.76 68.3589C1422.5 69.9603 1419.96 69.3618 1415.1 67.7295C1410.91 66.3167 1405.7 64.5683 1401.15 67.5291C1397.33 69.9803 1395.05 74.4772 1395 79.5055C1394.94 85.0934 1397.55 90.2215 1401.99 93.2321C1402.33 93.4752 1402.71 93.6674 1403.12 93.8007Z" fill="white" fill-opacity="0.38"/>
<path d="M1484.65 28.5202C1487.59 29.4561 1490.82 29.2974 1493.63 28.0786C1496.45 26.8589 1498.61 24.6799 1499.65 22.0183C1500.68 19.3532 1500.5 16.4259 1499.15 13.8777C1497.8 11.3305 1495.4 9.37082 1492.46 8.42954C1489.51 7.4946 1486.28 7.6542 1483.47 8.87479C1480.66 10.0945 1478.5 12.2745 1477.46 14.9369C1476.43 17.6012 1476.61 20.5266 1477.96 23.073C1479.3 25.6193 1481.71 27.5781 1484.65 28.5202ZM1489.82 15.2153C1490.77 15.5218 1491.55 16.1584 1491.99 16.9845C1492.43 17.8115 1492.49 18.761 1492.15 19.6261C1491.82 20.4894 1491.11 21.1958 1490.2 21.5912C1489.29 21.9866 1488.24 22.0374 1487.29 21.7345C1486.33 21.4289 1485.55 20.7932 1485.11 19.968C1484.68 19.1419 1484.62 18.1924 1484.95 17.3282C1485.29 16.4649 1485.99 15.7576 1486.9 15.3613C1487.82 14.965 1488.86 14.9133 1489.82 15.2153Z" fill="white" fill-opacity="0.38"/>
<path d="M1393.83 -0.250558C1390.71 -1.24625 1389.07 -4.34578 1390.17 -7.17235C1391.26 -9.99983 1394.68 -11.4834 1397.81 -10.4868C1400.93 -9.4911 1402.57 -6.39158 1401.47 -3.565C1400.37 -0.737522 1396.95 0.746043 1393.83 -0.250558Z" fill="white" fill-opacity="0.38"/>
<path d="M1447.79 292.34C1448.55 292.582 1449.37 292.61 1450.15 292.419C1450.93 292.229 1451.62 291.829 1452.14 291.273L1468.29 273.994C1468.97 273.267 1469.3 272.324 1469.21 271.373C1469.13 270.422 1468.63 269.542 1467.82 268.924C1467.02 268.308 1465.98 268.007 1464.93 268.086C1463.88 268.165 1462.9 268.618 1462.22 269.346L1446.07 286.621C1445.39 287.35 1445.06 288.293 1445.15 289.243C1445.24 290.195 1445.74 291.075 1446.54 291.693C1446.91 291.975 1447.34 292.195 1447.79 292.34Z" fill="white" fill-opacity="0.38"/>
<path d="M1317.6 273.552C1318.25 274.173 1319.12 274.564 1320.06 274.654C1321 274.745 1321.94 274.531 1322.72 274.049C1323.5 273.568 1324.06 272.85 1324.31 272.025C1324.56 271.201 1324.48 270.323 1324.07 269.549C1322.81 267.102 1323.1 263.813 1324.82 260.956C1326.26 258.574 1328.46 256.939 1330.56 256.692C1331.93 256.531 1333.88 258.535 1335.74 260.462C1339.12 263.924 1343.73 268.662 1351.24 267.489C1358.6 266.34 1360.61 259.412 1362.1 254.36C1362.66 252.442 1363.7 248.879 1364.6 248.415C1364.77 248.408 1364.93 248.423 1365.1 248.461C1368.96 249.218 1372.74 258.078 1372.35 271.596C1372.34 272.071 1372.43 272.542 1372.61 272.985C1372.8 273.426 1373.08 273.832 1373.45 274.175C1373.81 274.518 1374.24 274.794 1374.72 274.985C1375.2 275.178 1375.71 275.282 1376.23 275.294C1376.76 275.306 1377.28 275.226 1377.77 275.056C1378.26 274.886 1378.7 274.631 1379.08 274.304C1379.46 273.977 1379.76 273.586 1379.98 273.153C1380.19 272.719 1380.3 272.251 1380.31 271.778C1380.45 267.176 1380.43 244.086 1366.78 241.42C1362.91 240.661 1359.59 241.961 1357.44 245.078C1356 247.171 1355.21 249.886 1354.44 252.512C1353.17 256.924 1352.09 260.055 1349.92 260.395C1347.09 260.832 1345.17 259.219 1341.74 255.699C1338.78 252.664 1335.1 248.888 1329.54 249.546C1324.9 250.073 1320.55 253.064 1317.88 257.467C1314.92 262.367 1314.55 268.011 1316.89 272.56C1317.07 272.924 1317.3 273.26 1317.6 273.552Z" fill="white" fill-opacity="0.38"/>
<path d="M1373.14 128.15C1374.09 127.749 1375.18 127.709 1376.17 128.037C1377.16 128.365 1377.97 129.035 1378.41 129.901L1381.16 135.296L1388.99 130.792C1389.88 130.281 1390.95 130.111 1391.98 130.319C1393.01 130.526 1393.9 131.094 1394.47 131.898C1394.75 132.297 1394.94 132.742 1395.03 133.208C1395.12 133.673 1395.11 134.15 1395 134.612C1394.88 135.072 1394.67 135.509 1394.37 135.896C1394.07 136.283 1393.69 136.612 1393.25 136.866L1384.54 141.882L1388.21 149.076C1388.65 149.941 1388.7 150.931 1388.34 151.827C1387.98 152.722 1387.24 153.45 1386.28 153.852C1385.34 154.249 1384.27 154.295 1383.29 153.981C1382.79 153.822 1382.33 153.573 1381.94 153.25C1381.54 152.927 1381.23 152.535 1381 152.099L1377.77 145.786L1374.44 147.697C1373.94 147.991 1373.36 148.175 1372.77 148.237C1372.17 148.298 1371.56 148.236 1370.99 148.053C1370.16 147.79 1369.44 147.279 1368.96 146.602C1368.68 146.203 1368.49 145.758 1368.4 145.292C1368.31 144.827 1368.32 144.35 1368.43 143.888C1368.55 143.427 1368.76 142.991 1369.06 142.604C1369.36 142.217 1369.74 141.888 1370.18 141.635L1374.41 139.163L1371.21 132.922C1370.77 132.057 1370.72 131.069 1371.08 130.174C1371.44 129.279 1372.18 128.551 1373.14 128.15Z" fill="white" fill-opacity="0.38"/>
<path d="M1409.92 220.889C1412.86 221.826 1416.09 221.668 1418.9 220.448C1421.71 219.229 1423.88 217.049 1424.91 214.387C1425.95 211.722 1425.77 208.794 1424.42 206.248C1423.07 203.701 1420.66 201.742 1417.72 200.802C1414.78 199.866 1411.55 200.024 1408.74 201.244C1405.93 202.464 1403.77 204.644 1402.73 207.305C1401.7 209.97 1401.87 212.896 1403.22 215.442C1404.57 217.989 1406.98 219.947 1409.92 220.889ZM1415.08 207.587C1416.04 207.893 1416.82 208.529 1417.26 209.355C1417.7 210.181 1417.75 211.13 1417.42 211.995C1417.08 212.858 1416.38 213.564 1415.47 213.96C1414.56 214.355 1413.51 214.406 1412.55 214.103C1411.6 213.797 1410.82 213.162 1410.38 212.336C1409.95 211.51 1409.89 210.561 1410.22 209.698C1410.56 208.834 1411.26 208.127 1412.17 207.732C1413.08 207.336 1414.13 207.284 1415.08 207.587Z" fill="white" fill-opacity="0.38"/>
<path d="M1319.09 192.122C1315.97 191.126 1314.33 188.026 1315.43 185.2C1316.53 182.373 1319.95 180.889 1323.07 181.885C1326.19 182.881 1327.83 185.98 1326.73 188.807C1325.64 191.635 1322.22 193.118 1319.09 192.122Z" fill="white" fill-opacity="0.38"/>
<path d="M1469.4 159.848C1467.96 159.706 1466.07 158.987 1464.66 156.518C1463.93 155.101 1463.34 153.63 1462.9 152.12C1462.44 150.723 1461.5 147.925 1460.71 147.112C1459.49 147.626 1457.17 150.375 1456.03 151.74C1453.22 155.088 1450.57 158.247 1446.57 157.576C1439.87 156.458 1438.4 149.659 1437.85 147.102C1437.74 146.639 1437.74 146.162 1437.84 145.698C1437.95 145.236 1438.15 144.795 1438.43 144.402C1438.72 144.01 1439.1 143.673 1439.53 143.411C1439.96 143.148 1440.45 142.967 1440.96 142.875C1441.47 142.783 1442 142.782 1442.51 142.874C1443.02 142.966 1443.51 143.149 1443.94 143.411C1444.37 143.674 1444.75 144.012 1445.04 144.404C1445.33 144.797 1445.53 145.239 1445.63 145.702C1446.19 148.291 1446.81 149.497 1447.31 150.051C1448.03 149.346 1449 148.199 1449.7 147.361C1452.77 143.699 1456.6 139.143 1461.97 139.907C1467.35 140.671 1469.19 146.085 1470.5 150.032C1470.59 150.318 1470.7 150.639 1470.81 150.969C1471.33 150.354 1471.86 149.7 1472.3 149.159C1475.73 144.901 1480.01 139.612 1486.06 140.188C1492.11 140.765 1493.31 146.236 1494 149.501C1494.28 150.838 1494.8 153.307 1495.44 153.51C1496.14 153.054 1497.24 150.988 1497.85 149.862C1499.64 146.539 1502.34 141.522 1508.35 142.333C1514.56 143.178 1515.46 149.126 1516.01 152.683C1516.15 153.804 1516.37 154.915 1516.69 156.007C1518.11 155.945 1519.77 155.226 1521.13 154.088C1522.91 152.61 1523.9 150.719 1523.86 148.899C1523.86 148.426 1523.95 147.956 1524.15 147.517C1524.34 147.079 1524.63 146.68 1525 146.341C1525.36 146.004 1525.8 145.736 1526.28 145.551C1526.76 145.366 1527.27 145.269 1527.79 145.264C1528.32 145.255 1528.83 145.339 1529.32 145.512C1529.8 145.684 1530.25 145.94 1530.62 146.269C1531 146.596 1531.3 146.988 1531.51 147.42C1531.72 147.854 1531.83 148.32 1531.84 148.792C1531.93 152.678 1530 156.55 1526.55 159.423C1523.29 162.142 1519.08 163.545 1515.31 163.182C1513.75 163.03 1510.9 162.261 1509.4 158.793C1508.72 157.218 1508.45 155.424 1508.19 153.674C1508.01 152.488 1507.69 150.385 1507.23 149.59C1506.56 150.206 1505.62 151.955 1505.02 153.05C1503.28 156.284 1500.34 161.699 1494.04 160.605C1488.1 159.582 1486.98 154.333 1486.25 150.863C1486.01 149.749 1485.63 147.937 1485.21 147.361C1483.66 147.353 1480.24 151.604 1478.76 153.429C1476.15 156.679 1474.07 159.235 1471.05 159.768C1470.51 159.868 1469.95 159.896 1469.4 159.848Z" fill="white" fill-opacity="0.38"/>
</g>
</g>
</svg>
